<?xml version="1.0" standalone="no"?>
<!DOCTYPE svg PUBLIC "-//W3C//DTD SVG 20010904//EN"
 "http://www.w3.org/TR/2001/REC-SVG-20010904/DTD/svg10.dtd">
<svg version="1.0" xmlns="http://www.w3.org/2000/svg"
 width="2048.000000pt" height="1586.000000pt" viewBox="0 0 2048.000000 1586.000000"
 preserveAspectRatio="xMidYMid meet">
<metadata>
Created by potrace 1.16, written by Peter Selinger 2001-2019
</metadata>
<g transform="translate(0.000000,1586.000000) scale(0.100000,-0.100000)"
fill="#000000" stroke="none">
<path d="M13276 13268 c-6 -46 -10 -58 -17 -47 -7 9 -8 -17 -4 -84 l6 -98 -34
-32 c-18 -18 -44 -40 -57 -49 -13 -10 -21 -18 -17 -18 4 0 1 -13 -7 -28 -16
-31 -90 -102 -106 -102 -6 0 -10 -11 -10 -23 0 -16 -20 -43 -59 -80 -33 -32
-64 -57 -70 -57 -6 0 -11 -7 -11 -15 0 -13 49 -15 379 -15 243 0 382 -4 386
-10 3 -5 11 -10 16 -10 14 0 -21 48 -76 103 -42 43 -58 66 -35 52 6 -3 10 -1
10 4 0 6 -4 12 -10 12 -5 1 -14 2 -19 3 -5 0 -37 32 -72 70 -50 54 -58 67 -39
61 23 -7 22 -5 -8 21 -17 16 -46 40 -62 52 -51 40 -62 80 -54 209 5 80 4 113
-4 113 -6 0 -9 7 -6 15 4 8 2 15 -4 15 -5 0 -13 -28 -16 -62z"/>
<path d="M14793 13228 c8 -146 -4 -203 -50 -250 -20 -21 -45 -40 -55 -44 -10
-3 -18 -13 -18 -23 0 -20 -25 -47 -32 -34 -3 4 -3 2 -2 -4 4 -16 -79 -103 -97
-103 -11 0 -11 -2 -2 -8 9 -6 1 -21 -30 -53 -83 -90 -101 -113 -81 -103 10 5
191 10 402 12 294 2 382 5 382 15 0 6 -14 23 -31 37 -93 76 -119 103 -114 121
5 13 0 20 -17 25 -29 8 -124 114 -110 123 6 3 -3 17 -20 31 -82 68 -77 57 -73
177 2 64 1 94 -4 73 l-7 -35 -8 50 c-12 81 -16 95 -27 95 -8 0 -10 -31 -6
-102z"/>
<path d="M12820 12495 c0 -93 -3 -117 -15 -121 -8 -4 -12 -10 -9 -15 3 -5 -2
-9 -10 -9 -24 0 -24 -255 0 -264 9 -3 233 -6 498 -6 362 0 485 3 494 12 15 15
17 258 2 258 -5 0 -10 7 -10 15 0 8 -6 14 -12 12 -15 -3 -12 176 3 181 5 2 9
8 9 14 0 6 -7 8 -15 4 -8 -3 -15 -1 -15 4 0 6 -169 10 -457 10 -300 0 -453 4
-443 10 13 8 12 10 -2 10 -16 0 -18 -12 -18 -115z m928 -153 c3 -10 -91 -12
-464 -10 -365 2 -468 6 -472 16 -3 10 91 12 464 10 365 -2 468 -6 472 -16z"/>
<path d="M15260 12603 c0 -10 -95 -13 -442 -13 -244 0 -453 -3 -464 -6 -21 -6
-22 -13 -30 -247 -5 -133 -8 -245 -6 -249 5 -12 970 -10 993 2 17 10 19 22 19
125 0 103 -2 115 -17 116 -16 0 -15 1 2 8 17 7 17 8 -8 15 l-27 6 0 113 c0 61
-5 119 -10 127 -6 10 -10 11 -10 3z m18 -255 c-4 -10 -109 -14 -471 -16 -411
-2 -467 0 -467 13 0 13 58 15 471 15 372 0 470 -3 467 -12z"/>
<path d="M12750 11945 l0 -115 525 0 525 0 0 115 0 115 -525 0 -525 0 0 -115z"/>
<path d="M14294 12044 c3 -9 6 -60 6 -115 l0 -99 525 0 525 0 0 115 0 115
-531 0 c-480 0 -531 -2 -525 -16z"/>
<path d="M12750 11128 l0 -673 510 3 c344 2 510 -1 510 -8 0 -7 -168 -10 -510
-10 l-510 0 0 -1013 0 -1014 -97 -5 c-54 -3 -161 -4 -238 -3 -130 1 -140 2
-140 20 0 16 8 19 62 21 44 1 63 -3 67 -12 7 -18 36 -18 36 -1 0 19 111 17
126 -2 6 -8 18 -11 27 -8 16 6 17 126 17 1499 0 987 3 1494 10 1496 5 2 10 8
10 13 0 6 -4 8 -9 4 -5 -3 -12 -1 -16 5 -4 7 -181 10 -516 10 -280 0 -509 -1
-510 -2 -1 -2 -3 -220 -5 -484 -3 -388 -1 -484 9 -492 7 -6 56 -13 108 -14
l94 -3 0 -140 c0 -82 4 -143 10 -147 16 -12 25 -9 25 7 0 12 16 15 80 15 63 0
80 -3 80 -15 0 -11 -17 -15 -72 -17 -46 -2 -73 -7 -76 -15 -3 -10 16 -13 72
-13 60 0 76 -3 76 -15 0 -11 -17 -15 -72 -17 -57 -2 -73 -6 -73 -18 0 -12 16
-16 73 -18 55 -2 72 -6 72 -17 0 -12 -16 -15 -76 -15 -56 0 -75 -3 -72 -12 3
-9 30 -14 76 -16 55 -2 72 -6 72 -17 0 -12 -15 -15 -69 -15 -69 0 -98 -13 -70
-31 8 -5 42 -9 77 -9 48 0 62 -3 62 -15 0 -12 -15 -15 -75 -15 -60 0 -75 -3
-75 -15 0 -12 15 -15 75 -15 60 0 75 -3 75 -15 0 -12 -14 -15 -69 -15 -69 0
-98 -13 -70 -31 8 -5 42 -9 77 -9 44 0 62 -4 62 -13 0 -10 -16 -12 -62 -10
-35 2 -69 0 -77 -5 -27 -19 1 -32 70 -32 55 0 69 -3 69 -15 0 -12 -14 -15 -69
-15 -69 0 -97 -13 -70 -32 8 -5 42 -7 77 -5 56 4 62 3 62 -14 0 -17 -8 -19
-76 -19 -56 0 -75 -3 -72 -12 3 -9 30 -14 76 -16 55 -2 72 -6 72 -17 0 -12
-15 -15 -69 -15 -69 0 -98 -13 -70 -31 8 -6 43 -8 78 -7 43 2 66 -1 68 -9 3
-9 -18 -13 -74 -15 -61 -2 -78 -6 -78 -18 0 -12 17 -16 75 -20 41 -3 75 -9 75
-15 0 -5 -33 -12 -74 -15 -47 -3 -76 -10 -79 -17 -3 -10 16 -13 72 -13 68 0
76 -2 76 -19 0 -17 -6 -18 -62 -14 -35 2 -69 0 -77 -5 -27 -19 1 -32 70 -32
54 0 69 -3 69 -15 0 -11 -17 -15 -72 -17 -46 -2 -73 -7 -76 -15 -3 -10 16 -13
72 -13 60 0 76 -3 76 -15 0 -11 -17 -15 -72 -17 -57 -2 -73 -6 -73 -18 0 -12
16 -16 73 -18 55 -2 72 -6 72 -17 0 -12 -16 -15 -75 -15 -60 0 -75 -3 -75 -15
0 -12 14 -15 69 -15 l68 0 27 40 c14 22 26 51 26 65 0 14 5 25 10 25 14 0 13
27 -2 32 -16 6 -2 38 17 38 40 0 -2 -140 -63 -207 -28 -30 -42 -39 -53 -32
-33 21 -110 4 -94 -21 7 -12 55 -10 88 5 14 6 17 1 17 -31 1 -68 12 -74 140
-74 128 0 139 6 140 73 0 31 -7 46 -36 75 -44 45 -84 130 -84 178 0 29 3 35
16 30 9 -3 29 -6 45 -6 44 0 38 -28 -8 -32 -50 -4 -55 -26 -7 -30 44 -4 57
-25 18 -30 -36 -4 -42 -26 -10 -34 19 -4 26 -13 26 -29 0 -13 5 -27 12 -31 6
-4 55 -8 109 -8 123 -1 133 -20 14 -24 -47 -1 -85 -7 -85 -12 0 -19 41 -30
110 -30 53 0 71 -3 68 -12 -3 -9 -31 -14 -79 -16 l-74 -3 -20 -41 -21 -40
-134 0 -134 0 -21 41 c-18 36 -24 40 -57 41 -27 0 -38 -4 -38 -15 0 -10 11
-15 35 -15 30 0 35 -3 35 -22 -1 -29 -53 -93 -68 -84 -9 5 -12 166 -12 611 l0
604 -27 3 -28 3 -1 145 0 145 -105 5 c-57 3 -209 4 -337 2 l-233 -3 3 -132 c2
-73 5 -139 8 -147 3 -10 -2 -15 -18 -15 l-23 -1 0 -487 c1 -506 1 -516 43
-545 23 -17 23 -26 -4 -87 l-22 -50 -135 1 -134 2 -15 28 c-11 21 -17 25 -20
14 -2 -8 -12 -31 -21 -50 -13 -27 -16 -53 -13 -112 l4 -78 39 0 39 0 0 53 c0
28 3 69 6 90 5 30 9 35 20 26 10 -8 11 -16 4 -30 -13 -23 -11 -130 3 -147 7
-9 6 -21 -2 -38 -6 -15 -11 -81 -11 -164 0 -160 -13 -240 -40 -247 -23 -6 -27
-28 -25 -123 l2 -75 172 1 c136 1 171 -2 171 -12 0 -11 -37 -14 -170 -16
l-170 -3 -2 -195 -2 -195 172 0 c146 0 172 -2 172 -15 0 -13 -26 -15 -171 -15
l-171 0 1 -132 c1 -73 -2 -134 -7 -137 -18 -11 -22 26 -16 167 3 79 1 161 -4
185 -6 26 -6 44 0 48 11 7 9 397 -3 439 -6 19 -5 31 1 33 12 4 13 42 1 42 -16
0 -31 115 -31 247 l0 133 -190 0 c-205 0 -209 -1 -197 -53 6 -20 12 -22 86
-22 70 0 82 3 105 24 22 21 26 22 32 7 8 -20 24 -21 24 -1 0 22 16 18 34 -7
11 -15 13 -25 5 -33 -6 -6 -121 -10 -324 -10 -172 0 -316 -3 -320 -7 -4 -3 5
-14 19 -23 31 -21 33 -38 7 -64 -15 -15 -20 -37 -22 -97 -3 -71 -2 -80 17 -89
l21 -10 -25 -55 c-15 -35 -21 -59 -16 -68 7 -11 69 -13 327 -12 215 0 317 -3
317 -10 0 -7 -103 -10 -321 -10 l-320 1 1 -262 c0 -144 3 -266 6 -270 3 -5 16
-9 29 -9 31 0 43 -20 20 -36 -20 -15 -14 -44 10 -44 9 0 14 -8 12 -22 -1 -15
5 -26 19 -32 24 -11 28 -56 6 -78 -9 -9 -12 -6 -12 19 0 23 -6 33 -21 38 -12
4 -18 12 -15 21 8 21 -4 44 -23 44 -18 0 -26 36 -10 45 5 4 9 13 9 20 0 10 -8
13 -27 9 l-28 -5 0 328 0 328 -540 5 c-394 4 -513 7 -440 13 55 5 304 7 554 6
360 -2 456 0 459 10 2 7 -4 14 -14 17 -17 5 -19 14 -16 104 3 87 6 101 23 110
27 15 24 26 -13 39 -23 8 -29 14 -20 20 10 6 13 35 11 112 -1 69 2 104 10 107
15 5 14 32 -2 38 -11 4 -13 31 -10 122 5 129 -4 166 -53 215 l-26 27 23 20
c26 21 60 23 67 3 2 -9 -7 -13 -27 -13 -21 0 -31 -5 -31 -15 0 -10 10 -15 30
-15 31 0 43 -23 18 -33 -10 -4 -9 -8 2 -16 12 -8 16 -39 18 -143 2 -73 8 -143
14 -155 8 -17 8 -26 -1 -37 -15 -18 -18 -153 -3 -168 6 -6 17 -5 31 3 15 10
28 11 48 4 16 -6 45 -9 66 -7 l37 3 0 865 0 864 -50 0 c-27 0 -246 0 -485 0
-239 0 -442 0 -450 0 -8 0 -15 -7 -15 -16 0 -8 5 -12 10 -9 7 4 10 -226 10
-682 0 -448 -4 -683 -10 -673 -9 13 -10 13 -10 -1 0 -37 38 -48 96 -27 27 9
38 9 59 -2 21 -11 30 -12 45 -2 25 15 53 15 68 0 10 -10 17 -10 32 0 24 14 70
16 70 2 0 -5 9 -10 19 -10 11 0 23 5 26 10 8 14 41 13 65 -2 16 -10 24 -10 40
0 25 15 52 16 67 1 7 -7 19 -9 27 -6 13 5 16 23 16 91 0 71 3 87 18 95 16 9
16 11 -3 25 -24 18 -21 22 28 29 37 6 45 0 28 -18 -35 -37 -51 -89 -51 -165
l0 -80 -415 1 c-344 0 -415 3 -415 14 0 8 5 17 10 20 17 10 12 53 -7 57 -16 3
-16 4 0 20 20 19 23 59 5 55 -8 -1 -14 11 -16 30 -2 20 -11 37 -23 43 -10 6
-19 20 -19 30 0 11 -4 20 -10 20 -5 0 -10 -4 -10 -9 0 -13 -52 -91 -61 -91 -3
0 -4 -59 -1 -131 4 -115 3 -133 -12 -141 -20 -11 -21 -27 -1 -42 11 -8 15 -38
16 -120 1 -103 0 -110 -20 -117 -27 -10 -27 -35 -1 -42 18 -5 20 -14 20 -106
0 -83 -3 -101 -15 -101 -19 0 -19 -27 0 -37 13 -8 15 -53 13 -338 l-3 -330
-27 3 c-20 2 -28 -2 -28 -13 0 -8 5 -15 10 -15 20 0 11 -48 -11 -53 -14 -4
-20 -12 -17 -27 3 -22 6 -22 141 -21 75 1 137 -2 137 -7 0 -5 -67 -9 -149 -9
-81 0 -153 -3 -160 -7 -6 -4 -11 -18 -11 -32 0 -14 -4 -22 -10 -19 -5 3 -10
21 -10 39 0 25 5 35 20 39 14 3 20 14 20 31 0 16 6 26 15 26 18 0 20 31 3 48
-15 15 -2 29 32 34 l25 3 2 308 c2 260 0 309 -13 314 -8 3 -14 15 -14 27 0 12
-5 27 -12 34 -9 9 -7 12 9 12 28 0 33 17 33 105 0 64 -2 73 -20 78 -24 6 -29
67 -6 67 8 0 18 5 21 10 8 13 -4 50 -16 50 -6 0 -8 -4 -4 -9 10 -17 -95 -22
-345 -17 -288 5 -269 4 -250 16 8 5 25 7 37 4 19 -5 22 -1 25 33 3 36 5 38 38
38 33 0 35 -2 38 -35 l3 -35 67 2 c37 1 72 2 77 3 6 1 13 2 18 1 4 0 7 404 7
899 0 593 -3 900 -10 900 -5 0 -10 8 -11 18 0 10 -3 12 -6 5 -7 -18 -1243 -19
-1243 -2 0 6 9 9 20 6 36 -9 42 15 39 155 -3 127 -2 133 16 133 19 0 20 -9 23
-143 2 -118 5 -144 18 -149 29 -11 36 15 37 153 2 132 3 139 22 139 19 0 20
-8 23 -140 3 -142 9 -168 36 -146 12 10 16 42 18 149 3 129 4 137 23 137 19 0
20 -8 23 -143 2 -119 5 -144 18 -149 28 -11 34 19 33 157 l-1 135 23 0 c24 0
24 0 27 -140 1 -77 7 -144 12 -149 6 -6 15 -4 25 4 14 12 16 34 13 147 -3 122
-1 134 15 139 10 3 21 3 24 1 3 -3 4 -66 4 -140 -2 -111 1 -136 14 -147 30
-25 38 3 39 147 1 131 2 138 21 138 19 0 20 -8 25 -142 3 -78 8 -145 12 -148
4 -4 14 -5 22 -2 13 5 16 32 18 149 3 135 4 143 23 143 19 0 20 -8 23 -142 1
-83 7 -144 12 -144 34 -6 35 -4 40 141 5 137 6 145 25 145 19 0 20 -7 21 -140
1 -118 4 -141 18 -150 29 -18 36 13 36 158 0 138 0 138 23 135 22 -3 22 -6 24
-143 1 -117 4 -142 17 -150 29 -18 36 14 36 158 0 130 1 137 20 137 19 0 20
-7 20 -144 0 -151 4 -164 43 -144 17 9 18 23 16 146 -2 134 -2 137 19 140 22
3 22 1 22 -142 0 -80 4 -147 9 -150 5 -4 16 -3 25 0 13 5 16 30 18 147 3 134
4 142 23 142 19 0 20 -8 23 -140 1 -77 7 -144 12 -149 6 -6 15 -4 25 4 13 11
16 35 15 139 -1 69 1 134 5 144 8 19 33 23 32 5 0 -7 1 -74 1 -149 2 -132 3
-137 24 -142 13 -4 26 -1 30 6 4 6 7 77 6 157 0 204 5 206 12 5 l6 -170 2 173
c2 158 1 172 -15 173 -10 0 -319 0 -688 -1 -368 0 -689 0 -712 0 l-43 0 0
-169 c0 -160 1 -169 20 -174 11 -3 29 -3 40 0 19 5 20 14 20 149 0 84 4 145
10 149 7 4 10 -48 10 -150 0 -115 -3 -157 -12 -160 -10 -4 -12 -170 -10 -795
1 -435 6 -790 11 -790 5 0 27 16 50 36 38 34 41 40 41 90 0 53 12 78 24 48 3
-9 6 -38 6 -65 0 -44 3 -50 30 -64 17 -9 40 -13 54 -9 28 7 33 -4 35 -86 1
-85 11 -152 27 -188 14 -30 17 -32 54 -26 l40 7 0 -35 c0 -34 -1 -35 -42 -34
-33 1 -43 -3 -46 -16 -3 -15 4 -18 42 -18 44 0 46 -1 46 -30 0 -29 -2 -30 -45
-30 -38 0 -45 -3 -45 -20 0 -17 7 -20 45 -20 43 0 45 -1 45 -30 0 -29 -2 -30
-45 -30 -38 0 -45 -3 -45 -20 0 -17 7 -20 45 -20 43 0 45 -1 45 -30 0 -29 -2
-30 -45 -30 -38 0 -45 -3 -45 -20 0 -17 7 -20 45 -20 43 0 45 -1 45 -30 0 -29
-2 -30 -45 -30 -38 0 -45 -3 -45 -20 0 -17 7 -20 45 -20 43 0 45 -1 45 -30 0
-29 -2 -30 -46 -30 -44 0 -45 -1 -42 -27 l3 -28 314 -3 c173 -1 318 1 322 5
10 12 -10 245 -23 261 -8 9 -14 10 -22 2 -5 -5 -27 -10 -49 -10 -36 0 -38 2
-35 27 2 19 10 29 23 31 11 2 34 10 52 18 17 8 36 14 42 14 19 0 14 140 -6
162 -15 17 -15 19 1 37 13 14 18 39 19 92 l2 74 40 0 c38 0 40 -2 40 -30 0
-25 -4 -30 -27 -33 -28 -3 -34 -17 -29 -67 1 -11 -9 -28 -21 -37 l-23 -18 21
-18 c18 -15 22 -30 23 -99 2 -81 -8 -108 -32 -84 -16 16 -27 13 -27 -7 0 -11
9 -27 21 -38 15 -13 19 -26 15 -46 -3 -15 -1 -30 4 -33 5 -3 156 -6 336 -5
225 0 323 -3 319 -10 -4 -7 -111 -10 -322 -10 l-316 1 2 -340 2 -340 -28 -3
c-26 -3 -28 -7 -31 -50 l-3 -48 138 0 138 0 1 123 c0 137 14 180 74 231 38 32
40 32 75 4 47 -37 74 -113 75 -215 0 -48 -1 -99 -2 -113 l-3 -25 248 -3 247
-3 0 30 c0 16 -4 33 -10 36 -6 4 -10 76 -10 185 0 149 2 179 15 184 8 3 15 18
15 33 0 79 116 229 208 270 66 29 79 29 144 -1 100 -45 194 -152 220 -251 7
-26 17 -49 23 -51 14 -6 10 -340 -5 -378 -21 -57 -22 -56 244 -55 l245 0 -5
98 c-7 121 11 194 61 246 32 35 34 35 67 22 21 -9 44 -31 63 -62 29 -46 30
-54 32 -174 l2 -126 3083 -2 c1696 -2 3088 -1 3093 1 6 2 8 52 4 137 -6 131
-5 134 18 157 12 13 23 27 23 32 0 6 6 10 14 10 7 0 19 7 27 16 11 14 13 14
21 0 5 -9 15 -16 22 -16 8 0 16 -9 19 -20 3 -11 11 -20 19 -20 19 -1 51 -76
44 -105 -3 -13 -2 -27 4 -30 5 -3 10 -42 10 -86 l0 -79 85 0 85 0 0 89 c0 53
4 93 11 96 6 4 8 22 4 46 -5 31 -2 44 14 65 12 15 21 35 21 44 0 10 9 20 20
23 11 3 20 11 20 19 0 7 15 21 33 31 32 17 35 17 65 0 18 -10 32 -21 32 -26 0
-4 11 -17 25 -29 14 -12 25 -29 25 -39 0 -9 7 -22 15 -29 9 -7 15 -29 15 -54
0 -22 3 -85 6 -138 l5 -98 90 0 c49 0 92 1 97 3 4 1 8 49 9 106 1 70 5 106 14
111 8 6 10 22 6 53 -5 35 -2 50 12 69 10 12 21 35 25 51 3 15 13 27 21 27 8 0
21 13 29 29 9 16 23 31 33 34 10 4 26 12 36 19 15 11 20 10 28 -4 6 -10 19
-18 30 -18 11 0 23 -10 29 -24 5 -13 18 -27 29 -31 12 -3 24 -18 27 -33 4 -15
16 -37 27 -49 18 -20 19 -28 10 -69 -9 -40 -9 -47 6 -51 14 -3 16 -19 13 -114
l-4 -109 101 1 101 1 0 88 c0 53 4 92 11 96 7 4 8 20 4 41 -7 40 25 117 56
134 10 5 19 15 19 22 0 18 70 54 78 40 4 -6 17 -13 30 -17 12 -4 22 -13 22
-21 0 -7 11 -20 25 -29 14 -9 25 -25 25 -35 0 -10 7 -24 16 -32 12 -10 14 -23
9 -55 -3 -26 -2 -45 5 -49 6 -3 10 -44 10 -96 l0 -89 85 0 85 0 0 79 c0 44 4
82 9 85 4 3 6 16 4 29 -5 25 31 107 47 107 5 0 11 8 15 18 9 32 49 43 84 26
17 -9 31 -21 31 -29 0 -7 9 -15 20 -18 12 -3 20 -14 20 -25 0 -12 5 -24 11
-27 6 -4 9 -23 7 -42 -1 -21 3 -37 11 -43 11 -6 13 -25 8 -84 l-5 -76 54 0 55
0 -3 250 -3 250 58 0 c34 0 57 -4 57 -11 0 -6 -16 -9 -38 -8 -47 4 -59 -4 -57
-33 1 -18 8 -24 33 -26 29 -3 31 -6 28 -35 -3 -18 -5 -35 -5 -39 -1 -4 -12 -6
-25 -5 -14 1 -25 -1 -25 -5 -4 -48 0 -57 27 -60 24 -3 27 -7 27 -38 0 -31 -3
-35 -27 -38 -22 -3 -26 -8 -26 -32 1 -23 6 -30 27 -32 22 -3 26 -8 26 -38 0
-31 -3 -35 -30 -40 -16 -3 -30 -11 -29 -18 4 -44 -3 -42 152 -42 l148 0 -1
625 c-1 345 2 628 7 631 4 3 8 149 8 324 l0 319 -297 3 c-164 2 -335 2 -381 0
l-82 -4 5 -411 c3 -227 8 -425 10 -440 4 -23 1 -28 -13 -25 -10 2 -16 11 -14
21 2 10 -4 17 -13 17 -8 0 -15 -5 -15 -10 0 -23 -50 24 -84 79 -23 38 -52 70
-81 88 -49 31 -56 47 -25 63 26 14 40 5 40 -23 0 -14 20 -42 50 -72 28 -27 50
-56 50 -65 0 -17 19 -40 32 -40 4 0 8 13 8 29 0 20 6 30 20 34 14 3 20 14 20
32 0 18 -6 29 -20 32 -15 4 -20 14 -20 38 0 24 5 34 20 38 13 3 20 14 20 31 0
15 -8 30 -20 36 -28 15 -27 66 1 75 14 5 19 14 17 28 -3 21 -7 22 -153 23 -82
1 -150 5 -150 10 0 5 68 11 150 14 l150 5 3 29 c2 15 1 39 -2 52 -6 24 -7 24
-151 24 l-144 0 -5 -32 c-3 -18 -7 -44 -8 -58 -3 -24 -5 -25 -90 -28 l-88 -3
0 -124 c0 -117 1 -125 22 -139 32 -23 38 -20 38 18 0 35 17 50 45 40 16 -7 10
-63 -9 -77 -17 -12 -97 -1 -107 14 -4 8 -14 14 -21 14 -21 1 -78 39 -78 52 0
7 -9 29 -21 50 -57 104 -124 131 -330 138 -89 2 -114 9 -103 26 9 16 304 8
304 -8 0 -30 32 -43 106 -43 67 0 75 -2 72 -17 -2 -12 -13 -18 -33 -18 -43 0
-43 -19 0 -23 40 -4 48 -26 13 -36 l-23 -6 25 -19 c14 -11 22 -23 18 -27 -10
-9 11 -46 23 -42 13 4 12 1994 -1 2017 -6 9 -10 11 -10 4 0 -26 -20 -12 -20
15 0 15 -7 36 -15 46 -8 11 -15 26 -15 33 0 7 -9 22 -20 33 -19 19 -33 20
-274 20 l-254 0 1 -97 2 -98 30 0 c23 0 30 -4 30 -20 0 -16 -7 -20 -30 -20
-20 0 -30 -5 -30 -15 0 -10 10 -15 30 -15 20 0 30 -5 30 -15 0 -10 -10 -15
-30 -15 -19 -1 -30 -6 -30 -15 0 -9 11 -14 30 -15 20 0 30 -5 30 -15 0 -10
-10 -15 -29 -15 -42 0 -45 -23 -4 -27 21 -2 33 -8 33 -18 0 -11 -9 -14 -32
-12 -25 3 -33 0 -33 -12 0 -12 10 -16 35 -16 24 0 35 -5 35 -15 0 -10 -11 -15
-35 -15 -24 0 -35 -5 -35 -15 0 -10 11 -15 35 -15 24 0 35 -5 35 -15 0 -10
-11 -15 -35 -15 -24 0 -35 -5 -35 -15 0 -10 11 -15 35 -15 24 0 35 -5 35 -15
0 -10 -11 -15 -35 -15 -24 0 -35 -5 -35 -15 0 -10 11 -15 35 -15 24 0 35 -5
35 -15 0 -10 -11 -15 -35 -15 -24 0 -35 -5 -35 -15 0 -10 11 -15 35 -15 24 0
35 -5 35 -15 0 -10 -11 -15 -35 -15 -24 0 -35 -5 -35 -15 0 -10 11 -15 35 -15
24 0 35 -5 35 -15 0 -10 -11 -15 -35 -15 -25 0 -35 -4 -35 -16 0 -11 8 -14 32
-12 24 2 33 -1 36 -14 3 -15 -4 -18 -32 -18 -25 0 -36 -4 -36 -15 0 -11 9 -14
32 -13 24 2 33 -2 36 -14 3 -15 -4 -18 -33 -18 -25 0 -35 -4 -32 -12 2 -7 17
-13 33 -13 19 0 30 -6 32 -17 3 -15 -4 -18 -33 -18 -24 0 -35 -4 -33 -12 3 -7
18 -12 34 -13 20 0 30 -6 32 -18 3 -16 -2 -18 -30 -15 -24 2 -33 -1 -33 -12 0
-9 10 -14 30 -15 43 0 40 -29 -2 -33 -18 -2 -33 -7 -33 -12 0 -5 15 -10 33
-12 42 -4 45 -33 3 -33 -42 0 -45 -23 -4 -27 43 -4 46 -33 4 -33 -42 -1 -45
-23 -4 -27 46 -4 46 -34 1 -30 -24 1 -33 -2 -33 -13 0 -11 11 -15 36 -15 28 0
35 -3 32 -17 -3 -13 -12 -17 -36 -15 -23 1 -32 -2 -32 -13 0 -10 11 -15 35
-15 24 0 35 -5 35 -15 0 -16 -9 -18 -47 -15 -15 1 -23 -4 -23 -14 0 -12 10
-16 35 -16 24 0 35 -5 35 -15 0 -16 -9 -18 -47 -15 -15 1 -23 -4 -23 -14 0
-12 10 -16 35 -16 24 0 35 -5 35 -15 0 -10 -11 -15 -35 -15 -24 0 -35 -5 -35
-15 0 -10 11 -15 35 -15 24 0 35 -5 35 -15 0 -10 -11 -15 -35 -15 -24 0 -35
-5 -35 -15 0 -10 11 -15 35 -15 24 0 35 -5 35 -15 0 -10 -11 -15 -35 -15 -25
0 -35 -4 -35 -16 0 -10 8 -15 23 -14 38 3 47 1 47 -15 0 -10 -11 -15 -35 -15
-24 0 -35 -5 -35 -15 0 -10 11 -15 35 -15 24 0 35 -5 35 -15 0 -11 -11 -15
-36 -15 -24 0 -34 -4 -31 -12 2 -7 17 -13 33 -13 42 -1 39 -29 -4 -33 -41 -4
-38 -27 4 -27 19 -1 29 -6 29 -15 0 -10 -10 -15 -30 -15 -20 0 -30 -5 -30 -15
0 -9 10 -14 30 -15 20 0 30 -5 30 -15 0 -10 -10 -15 -30 -15 -20 0 -30 -5 -30
-15 0 -9 10 -14 30 -15 20 0 30 -5 30 -15 0 -10 -10 -15 -29 -15 -41 0 -45
-23 -5 -27 44 -4 49 -26 8 -30 -46 -4 -50 -28 -5 -28 25 0 36 -4 36 -15 0 -10
-11 -15 -35 -15 -24 0 -35 -5 -35 -15 0 -10 11 -15 35 -15 24 0 35 -5 35 -15
0 -10 -11 -15 -35 -15 -24 0 -35 -5 -35 -15 0 -10 10 -15 30 -15 17 0 33 -7
38 -17 9 -15 13 -14 40 8 37 29 39 35 11 42 -32 8 -13 27 27 27 45 0 41 23 -5
30 -51 8 -41 25 19 30 30 3 55 10 55 15 0 6 -25 12 -55 15 -85 8 -66 25 33 28
87 3 108 -6 66 -28 -11 -6 -41 -43 -66 -83 -48 -73 -88 -116 -111 -117 -7 0
-20 -4 -30 -9 -9 -6 -29 -12 -44 -16 -16 -3 -28 -11 -28 -18 0 -9 72 -12 317
-11 297 0 300 0 51 -3 l-268 -3 0 -70 0 -70 -40 28 c-21 15 -39 31 -40 35 0
12 -59 96 -84 121 -17 17 -33 21 -88 21 -60 0 -70 -3 -98 -30 -18 -16 -43 -51
-56 -76 -26 -51 -76 -89 -118 -89 -24 0 -25 2 -16 20 8 15 17 19 36 14 28 -7
54 10 54 36 0 10 8 21 18 23 14 4 14 6 -5 12 -32 10 -29 25 5 25 35 0 83 51
75 80 -6 22 8 26 37 10 13 -7 27 -6 45 2 19 9 30 8 49 -1 18 -10 29 -10 44 -2
32 17 41 13 39 -15 -2 -25 25 -55 37 -43 4 4 8 1681 6 2362 l0 37 -370 0 -369
0 -6 -32 c-3 -18 -5 -430 -3 -915 l3 -881 24 -21 c13 -12 30 -21 38 -21 18 0
16 -10 -4 -26 -17 -13 -17 -13 1 -14 13 0 17 -5 13 -20 -3 -11 2 -37 12 -58
12 -28 16 -64 15 -147 -1 -60 -2 -170 -3 -242 -1 -86 -5 -133 -12 -133 -7 0
-9 44 -7 130 l3 130 -42 0 -43 0 0 -133 c0 -82 4 -137 11 -144 8 -8 7 -17 -2
-31 -7 -12 -10 -24 -6 -28 12 -12 59 15 64 37 4 16 12 20 30 16 13 -2 26 0 29
4 10 17 40 9 63 -15 13 -14 37 -26 54 -28 28 -3 32 -7 33 -36 2 -30 18 -62 33
-62 3 0 13 5 21 10 13 8 12 12 -7 25 -31 22 -29 35 6 35 l28 0 0 -65 c-1 -36
-3 -64 -7 -62 -44 23 -71 48 -91 86 -25 47 -84 91 -125 91 -34 0 -87 -42 -110
-88 -25 -50 -56 -76 -109 -91 -44 -12 -57 -3 -53 38 4 34 28 40 28 6 0 -15 4
-24 10 -20 6 3 10 19 10 36 0 27 -3 29 -36 29 -29 0 -34 -3 -31 -17 3 -10 8
-39 12 -66 l6 -47 40 6 c38 6 39 6 41 -22 2 -36 5 -67 14 -120 4 -25 1 -57 -6
-79 -11 -34 -15 -37 -42 -31 -17 3 -43 6 -59 6 -39 0 -38 25 2 46 23 11 34 13
42 5 6 -6 19 -11 29 -11 19 0 22 17 12 69 l-6 31 -113 0 -112 0 5 -77 c3 -59
1 -75 -7 -67 -8 7 -11 39 -9 90 l3 79 118 -3 c93 -2 117 0 117 11 0 25 -21 34
-66 29 l-45 -5 3 101 c2 95 4 101 26 111 53 25 79 9 84 -53 4 -51 21 -55 47
-12 20 32 21 40 11 98 -12 75 -20 548 -9 548 11 0 20 -76 17 -145 -2 -33 0
-61 5 -62 4 -2 25 -3 48 -3 28 0 39 4 37 12 -3 8 -19 12 -41 10 -24 -2 -37 1
-37 8 0 8 11 11 30 8 40 -6 48 7 41 67 -4 28 -2 58 3 67 7 12 5 26 -6 50 -9
18 -22 47 -29 63 l-12 30 -7 -33 c-4 -18 -10 -35 -13 -38 -8 -8 -263 -7 -276
0 -5 3 -12 20 -16 36 -4 17 -11 30 -16 30 -20 0 -7 39 26 81 19 24 35 54 35
66 0 15 7 23 22 25 17 2 26 14 36 48 15 49 33 152 32 188 0 12 5 22 10 22 6 0
10 73 10 195 l0 195 -30 0 -30 0 0 161 0 161 -25 -6 -25 -6 0 86 c0 81 -1 86
-20 81 -18 -5 -20 0 -20 40 0 40 -2 45 -20 40 -18 -5 -19 -1 -13 39 5 40 4 44
-16 44 -18 0 -21 6 -21 45 l0 45 -214 0 c-162 0 -216 3 -220 13 -3 6 -4 -16
-1 -50 2 -36 0 -63 -6 -63 -5 0 -9 4 -9 9 0 4 -12 6 -26 3 -19 -3 -22 -7 -12
-13 10 -7 10 -9 0 -9 -9 0 -11 -10 -6 -35 6 -35 6 -36 -20 -29 -25 6 -26 4
-26 -35 0 -35 -3 -41 -21 -41 -21 0 -22 -3 -17 -85 4 -54 2 -85 -5 -88 -6 -2
-10 -60 -10 -160 0 -86 -4 -157 -9 -157 -4 0 -8 4 -8 9 0 4 -10 6 -22 4 l-23
-4 -3 -546 c-1 -301 -5 -549 -7 -552 -3 -3 -16 -6 -28 -8 -22 -3 -23 -2 -20
89 3 76 0 100 -16 133 -10 22 -23 49 -27 60 -7 17 -9 14 -12 -15 -2 -19 -12
-46 -23 -61 -20 -28 -24 -51 -11 -63 4 -4 7 -33 7 -64 0 -53 2 -57 25 -60 44
-6 49 -24 6 -20 -25 2 -41 -2 -44 -10 -4 -13 5 -15 54 -12 18 1 35 -4 39 -10
5 -8 12 -6 25 5 10 9 24 14 30 10 14 -9 40 12 51 42 5 14 17 23 29 23 11 0 43
17 70 37 39 29 50 43 50 65 0 16 7 31 15 34 20 8 19 58 -1 74 -19 17 -15 66 6
63 9 -2 31 13 50 33 31 33 32 38 17 49 -25 18 -22 55 4 55 18 0 21 -4 16 -29
-4 -16 -3 -31 1 -33 20 -9 85 -89 78 -95 -4 -5 -23 10 -41 31 l-33 39 -41 -44
c-38 -39 -41 -46 -30 -66 7 -12 9 -38 6 -57 -3 -20 -1 -38 4 -42 6 -4 6 -11
-2 -20 -23 -28 -248 -194 -263 -194 -19 0 -25 -35 -24 -151 1 -99 -16 -199
-34 -199 -6 0 -7 7 -4 15 3 8 9 22 12 30 4 11 0 15 -15 15 -12 0 -21 5 -21 10
0 6 12 10 26 10 l25 0 -3 137 -3 137 -33 7 c-18 4 -35 2 -38 -3 -3 -5 -5 -80
-5 -166 2 -156 12 -212 38 -212 7 0 13 -6 13 -14 0 -8 -8 -12 -23 -9 -37 7
-47 53 -47 223 0 95 -5 166 -12 187 -10 27 -10 38 1 55 11 17 11 22 -1 29 -11
8 -11 10 1 18 11 7 11 17 1 62 -10 39 -10 54 -1 57 6 2 11 10 11 18 0 11 -22
14 -110 14 -99 0 -129 -7 -100 -25 5 -3 8 -57 7 -123 l-2 -117 -40 3 c-22 2
-44 5 -50 5 -6 1 -11 -56 -12 -153 -1 -85 -2 -160 -2 -166 -1 -8 -12 -10 -33
-5 -18 4 -196 7 -395 6 -200 -1 -363 2 -363 7 0 4 11 8 24 8 13 0 26 7 30 15
3 9 18 15 36 15 20 0 30 -5 30 -15 0 -9 9 -15 25 -15 14 0 28 7 31 15 4 9 19
15 35 15 19 0 29 -5 29 -15 0 -10 10 -15 30 -15 20 0 30 5 30 15 0 10 10 15
30 15 18 0 33 -6 36 -15 4 -8 17 -15 30 -15 14 0 27 7 30 15 4 9 19 15 35 15
19 0 29 -5 29 -15 0 -10 10 -15 30 -15 20 0 30 5 30 15 0 10 10 15 29 15 16 0
31 -6 35 -15 3 -8 17 -15 31 -15 16 0 25 6 25 15 0 10 11 15 35 15 27 0 33 -3
28 -16 -4 -12 0 -15 18 -12 24 3 24 3 21 123 -1 66 -5 148 -8 182 l-6 61 61
-5 61 -6 -1 89 c-1 71 -5 94 -20 113 -11 13 -19 32 -19 42 0 11 -9 28 -20 39
-24 24 -25 29 -2 46 16 13 15 14 -6 20 -33 9 -21 30 15 26 24 -3 38 4 62 30
19 19 30 40 27 51 -2 10 4 22 17 28 18 10 19 12 4 21 -23 13 -21 38 3 38 11 0
20 5 20 10 0 6 -9 10 -19 10 -24 0 -38 18 -19 25 45 15 53 11 50 -25 -5 -67
-34 -133 -80 -182 -43 -46 -45 -50 -38 -95 3 -26 10 -51 14 -55 5 -5 62 -7
126 -6 l118 3 13 39 c10 27 11 45 4 58 -5 10 -7 18 -3 18 4 0 -12 20 -35 45
-25 28 -41 54 -41 70 0 14 -5 24 -11 22 -12 -2 -38 89 -39 137 0 27 -1 28 -17
13 -12 -10 -28 -13 -46 -10 -35 7 -30 27 8 28 41 0 44 23 3 27 -44 4 -38 22 9
28 l38 5 12 -50 c7 -27 12 -62 13 -76 0 -14 7 -34 15 -45 13 -17 14 48 15 554
l0 572 -515 0 c-337 0 -515 -3 -515 -10 0 -5 -7 -10 -15 -10 -13 0 -15 -118
-15 -1005 l0 -1005 -90 0 -90 0 0 46 c0 27 -4 43 -10 39 -6 -4 -7 5 -4 24 4
20 0 42 -14 68 -11 21 -23 46 -26 56 -3 9 -15 17 -26 17 -13 0 -20 7 -20 20 0
11 5 20 10 20 6 0 10 50 9 133 -1 72 -4 121 -8 107 l-7 -25 -7 25 c-4 14 -7
69 -7 123 0 75 -3 97 -14 97 -7 0 -25 18 -40 40 -14 22 -37 47 -51 56 -14 9
-22 21 -18 27 4 6 -2 8 -15 5 -13 -4 -22 -1 -22 5 0 6 -9 20 -20 32 -20 21
-20 34 -20 1248 l0 1227 -525 0 -525 0 0 -672z m242 561 c1 -33 1 -63 -1 -65
-2 -2 -37 -4 -78 -4 l-73 0 0 65 0 65 74 0 74 0 4 -61z m426 -6 l3 -63 -139 0
-140 0 4 63 c1 34 3 63 3 65 1 1 61 1 134 0 l132 -3 3 -62z m304 10 c2 -32 3
-61 1 -65 -3 -5 -38 -8 -79 -8 l-74 0 0 65 0 65 74 0 74 0 4 -57z m-727 -174
l0 -59 -77 0 -78 0 0 63 0 62 77 -3 78 -3 0 -60z m425 1 l0 -60 -138 0 -137 0
0 60 0 60 137 0 138 0 0 -60z m305 0 l0 -60 -77 0 -78 0 0 60 0 60 78 0 77 0
0 -60z m-730 -160 l0 -60 -77 0 -78 0 0 60 0 60 78 0 77 0 0 -60z m425 0 l0
-60 -138 0 -137 0 0 60 0 60 137 0 138 0 0 -60z m305 0 l0 -60 -77 0 -78 0 0
60 0 60 78 0 77 0 0 -60z m-730 -159 l0 -60 -78 -3 -77 -3 0 63 0 62 78 0 77
0 0 -59z m423 -3 c-2 -35 -6 -62 -10 -60 -5 1 -66 2 -136 2 l-129 0 0 60 0 60
139 0 139 0 -3 -62z m307 2 l0 -60 -77 0 -78 0 0 60 0 60 78 0 77 0 0 -60z
m-733 -161 c1 -33 1 -63 -1 -65 -2 -2 -37 -4 -78 -4 l-73 0 0 65 0 65 74 0 74
0 4 -61z m426 -1 l-3 -63 -135 0 -135 0 -1 63 0 62 138 0 139 0 -3 -62z m305
-3 l0 -60 -74 0 -74 0 -3 63 -3 63 77 -3 77 -3 0 -60z m-733 -161 l0 -64 -75
0 -75 0 0 65 0 64 75 -1 75 -1 0 -63z m425 1 l0 -60 -135 0 -135 0 -1 55 c0
30 1 58 3 61 1 3 62 6 135 5 l133 -1 0 -60z m308 53 c-2 -5 -3 -33 -3 -63 l0
-55 -75 0 -75 0 0 58 c0 32 3 62 6 65 9 9 150 4 147 -5z m-731 -219 l3 -59
-77 0 -78 0 0 63 0 62 74 -3 74 -4 4 -59z m428 0 l0 -59 -138 0 -139 0 1 60 1
59 130 3 c71 2 133 2 138 0 4 -2 7 -30 7 -63z m305 1 l0 -60 -77 0 -78 0 0 60
0 60 78 0 77 0 0 -60z m-730 -160 l0 -60 -67 0 c-38 0 -71 -1 -75 -2 -5 -2 -9
25 -11 60 l-3 62 78 0 78 0 0 -60z m423 -1 l-3 -61 -85 0 c-47 0 -107 1 -135
1 l-50 1 -1 60 -1 60 139 0 139 0 -3 -61z m307 4 c0 -32 -3 -60 -6 -63 -4 -3
-39 -4 -78 -2 l-71 4 0 59 0 59 78 0 77 0 0 -57z m-5208 -1461 c-1 -240 -2
-41 -2 443 0 484 1 681 2 437 2 -244 2 -640 0 -880z m3003 80 c0 -21 15 -43
60 -87 50 -49 60 -65 60 -93 0 -30 -2 -33 -15 -22 -8 7 -15 21 -15 31 0 11 -5
19 -10 19 -6 0 -10 -23 -9 -52 1 -47 6 -57 39 -89 31 -31 38 -34 46 -21 13 20
34 7 34 -21 0 -16 16 -35 50 -60 27 -20 52 -37 55 -37 3 0 5 24 5 53 0 45 3
53 18 53 9 -1 17 4 17 9 0 6 -8 9 -18 7 -14 -1 -18 4 -15 20 2 17 10 23 28 23
22 0 25 -4 24 -32 -3 -69 -4 -73 -24 -73 -11 0 -20 -4 -20 -9 0 -5 22 -9 48
-9 27 -1 55 -2 63 -4 11 -2 14 11 15 58 1 34 4 67 8 73 4 6 4 20 1 31 -5 14
-2 18 7 15 11 -4 13 -26 10 -95 -3 -67 -1 -90 8 -90 8 0 9 -6 4 -17 -5 -10
-12 -88 -16 -173 -10 -222 -14 -249 -45 -256 -29 -8 -39 1 -48 39 -6 22 -4 26
8 21 9 -3 13 -13 10 -25 -4 -14 0 -19 17 -19 16 0 20 4 15 19 -3 11 -1 22 5
26 6 4 9 14 6 22 -4 9 -1 21 5 29 7 8 9 63 7 158 -2 81 1 146 5 146 5 0 7 5 5
11 -2 7 -24 12 -48 13 -34 1 -50 -4 -66 -21 -21 -20 -21 -33 -2 -33 4 0 8 6 8
13 0 7 16 13 41 15 28 2 38 -1 34 -9 -4 -6 -16 -9 -26 -6 -10 3 -21 1 -24 -4
-3 -5 -6 -68 -7 -141 0 -120 1 -133 18 -139 18 -7 18 -7 1 -14 -10 -4 -21 -4
-25 0 -4 3 -8 61 -9 128 l-1 122 -114 87 c-62 48 -137 107 -166 130 -29 24
-57 45 -63 47 -6 1 -88 -56 -183 -128 l-174 -131 -4 -148 c-3 -118 -7 -152
-21 -173 -9 -14 -14 -29 -10 -33 5 -4 -7 -6 -26 -4 -30 3 -35 7 -38 33 -1 17
-8 46 -13 65 -6 19 -11 146 -13 283 -2 199 1 247 11 247 9 0 11 -7 7 -20 -3
-11 -2 -20 2 -20 5 0 7 -30 5 -66 l-4 -65 43 3 c43 3 44 4 47 40 2 20 -2 46
-8 58 -6 12 -7 20 -1 20 22 0 23 42 2 64 -13 13 -20 34 -20 52 2 27 2 27 6 4
3 -13 16 -37 29 -53 25 -30 30 -52 14 -62 -17 -10 -11 -32 10 -38 14 -3 20
-14 20 -32 0 -18 -6 -29 -20 -32 -22 -6 -25 -14 -10 -29 7 -7 8 -19 1 -37 -6
-15 -8 -27 -6 -27 5 0 80 55 119 86 12 10 16 24 13 40 -6 31 12 43 30 19 12
-18 14 -18 33 3 12 12 26 22 33 22 36 0 45 87 15 148 -10 20 -7 26 30 58 36
30 42 41 42 75 0 32 3 39 20 39 15 0 20 -7 20 -28z m4478 -115 c3 -23 0 -27
-23 -27 -28 0 -31 -5 -38 -69 -6 -48 -13 -40 97 -126 42 -34 61 -44 69 -36 19
19 37 12 37 -15 0 -33 47 -82 56 -59 4 8 11 15 18 15 8 0 12 -39 12 -137 0
-104 0 -113 -3 -36 l-4 102 -47 39 c-80 66 -309 232 -320 232 -6 0 -12 -6 -15
-12 -2 -7 -8 -10 -12 -6 -11 11 14 38 36 38 10 0 24 -9 32 -20 18 -26 27 -16
27 34 0 27 9 52 27 78 29 43 46 45 51 5z m-2639 -222 c2 -164 2 -165 -25 -194
-57 -65 -57 -61 -55 -385 1 -165 4 -302 6 -305 3 -2 20 9 37 25 24 21 27 23
13 5 -11 -13 -30 -34 -42 -47 -13 -13 -23 -27 -23 -31 0 -4 -227 -7 -505 -5
l-504 2 0 -242 c1 -175 -2 -243 -11 -246 -8 -3 -11 32 -9 129 l2 134 -171 3
c-128 2 -172 6 -172 15 0 9 43 12 171 12 l170 0 0 195 0 195 -165 3 -165 2 3
-80 c2 -44 0 -80 -5 -80 -5 0 -9 42 -9 93 l0 92 180 0 180 0 1 -45 c1 -25 1
-62 0 -82 l-3 -38 46 0 46 0 0 53 0 52 41 1 40 1 -2 -51 -3 -51 48 -3 48 -3
-4 53 -3 53 40 0 39 0 -3 -52 -2 -53 46 0 46 0 -2 53 -3 52 39 0 40 0 0 -53
-1 -52 43 0 43 0 0 53 0 52 41 0 40 0 -2 -50 -3 -50 45 -3 45 -3 -1 52 0 53
38 1 37 2 0 -54 0 -53 45 0 45 0 -2 53 -3 52 35 -1 35 0 3 -53 c2 -32 7 -51
14 -49 7 3 10 35 8 93 -2 50 -4 149 -4 220 l-1 130 -247 -1 c-206 -1 -248 1
-248 13 0 10 5 11 18 5 21 -12 42 -5 42 14 0 19 56 19 64 -1 3 -8 17 -15 31
-15 16 0 25 6 25 15 0 10 11 15 35 15 24 0 35 -5 35 -15 0 -9 9 -15 25 -15 14
0 28 7 31 15 4 9 19 15 35 15 19 0 29 -5 29 -15 0 -10 10 -15 30 -15 20 0 30
5 30 15 0 10 11 15 35 15 24 0 35 5 35 15 0 11 -11 15 -41 15 -28 0 -39 4 -36
13 2 6 16 12 32 12 41 0 43 23 3 27 -43 4 -39 22 6 26 30 3 39 10 62 50 15 26
34 55 42 64 13 16 13 18 -2 24 -23 9 -20 20 7 28 l22 7 -22 11 c-28 13 -29 23
-5 38 16 10 16 10 0 20 -22 13 -23 30 -3 30 20 0 19 17 -2 30 -17 9 -17 11 0
21 17 10 17 12 2 29 -15 17 -15 19 2 29 17 9 17 11 -2 25 -17 14 -18 17 -5 26
36 24 38 14 39 -155z m-1160 7 l1 -63 38 3 37 3 3 62 3 62 52 -5 c66 -7 80
-12 72 -24 -3 -5 -29 -10 -56 -10 -42 0 -50 -3 -47 -17 2 -12 15 -16 53 -17
37 -1 50 -5 50 -16 0 -11 -14 -16 -57 -18 -88 -5 -73 -27 22 -34 50 -4 39 -22
-17 -28 -34 -4 -48 -9 -48 -20 0 -11 12 -15 50 -15 37 0 50 -4 50 -15 0 -11
-11 -14 -45 -12 -25 1 -51 -2 -59 -7 -25 -17 0 -31 55 -31 74 0 68 -23 -7 -30
-70 -6 -69 -24 1 -30 38 -3 55 -9 55 -19 0 -10 -15 -14 -55 -15 -42 -1 -55 -5
-55 -16 0 -11 14 -16 58 -18 72 -4 73 -26 1 -30 -26 -2 -54 -8 -61 -13 -9 -8
-13 20 -15 126 -2 109 0 138 11 145 8 4 11 12 8 17 -5 7 -38 8 -109 4 -13 -1
-9 -21 5 -21 9 0 12 -37 12 -152 l0 -153 25 4 25 3 -22 -18 c-20 -17 -22 -24
-13 -59 10 -43 6 -55 -12 -37 -7 7 -12 28 -11 47 1 19 -3 38 -8 41 -5 3 -9 70
-9 149 0 87 -5 154 -11 169 -9 19 -9 29 0 39 7 9 10 44 7 95 -2 45 0 84 3 88
9 9 19 -44 20 -114z m1715 42 c3 -9 7 -66 8 -127 l2 -112 5 114 c4 74 10 116
18 118 8 3 12 -33 15 -129 2 -73 2 -135 1 -137 -2 -2 -13 0 -26 6 -12 6 -30
14 -39 17 -16 5 -18 20 -18 129 0 68 3 127 7 130 11 11 20 8 27 -9z m-2367
-125 c66 -25 98 -90 73 -150 -20 -47 -55 -69 -112 -69 -43 0 -54 4 -79 31 -55
59 -30 167 44 188 43 12 42 12 74 0z m4364 -4 c34 -18 69 -70 69 -103 0 -61
-57 -115 -121 -114 -64 1 -119 54 -119 114 0 35 37 88 73 103 42 18 62 18 98
0z m553 -58 c14 -10 19 -33 23 -116 6 -97 5 -103 -13 -99 -17 3 -19 11 -16 71
3 44 0 67 -7 67 -7 0 -11 -26 -11 -68 l0 -68 -35 -1 -35 -1 0 79 0 78 47 -2
c30 -1 48 2 50 11 3 8 -10 12 -46 12 -56 0 -69 18 -28 38 30 15 50 14 71 -1z
m-1265 -104 c1 -59 -3 -130 -10 -158 -6 -27 -14 -63 -18 -80 -5 -21 -14 -31
-29 -33 -22 -3 -23 -7 -20 -100 l3 -97 159 -3 c108 -2 163 1 172 9 8 6 14 9
14 6 0 -3 3 -12 6 -21 5 -14 -14 -16 -175 -16 l-181 0 0 -200 0 -200 170 0
170 0 1 53 c1 47 1 49 11 24 5 -15 7 -44 4 -63 l-7 -34 -174 0 -175 0 0 -140
c0 -87 -4 -140 -10 -140 -6 0 -10 90 -10 250 l0 250 -500 0 -500 0 0 -250 c0
-160 -4 -250 -10 -250 -6 0 -10 94 -10 263 l0 263 -55 54 c-53 52 -55 56 -55
107 0 36 -4 53 -12 53 -7 0 -38 28 -70 62 l-56 63 -57 -62 c-51 -56 -61 -63
-95 -63 -34 0 -44 6 -93 62 l-54 62 -58 -62 c-56 -60 -80 -77 -69 -47 3 8 13
17 22 20 10 3 36 30 58 61 l41 54 61 -65 c91 -97 117 -92 220 40 23 29 24 29
38 10 39 -53 110 -117 135 -122 28 -5 29 -7 29 -70 0 -60 2 -67 33 -98 26 -26
39 -32 60 -28 24 5 26 10 29 56 3 50 3 51 38 51 l35 1 -1 -52 -2 -53 44 0 44
0 0 53 0 54 38 -2 37 -1 0 -53 -1 -52 45 3 44 3 1 49 1 50 38 2 38 3 -2 -52
-3 -52 47 -3 47 -3 0 54 0 54 38 -2 37 -1 -1 -52 -2 -52 44 0 44 0 0 53 0 52
41 0 41 0 -4 -52 -5 -53 44 0 43 0 0 53 0 52 40 0 40 0 0 -52 c0 -51 1 -52 33
-56 40 -5 -384 -9 -711 -7 -219 1 -243 0 -240 -15 3 -14 51 -16 498 -16 l495
0 1 23 c5 101 6 199 2 203 -6 6 -969 13 -985 7 -8 -2 -14 -24 -15 -51 -1 -34
-3 -27 -7 28 -3 40 -3 126 0 190 6 127 11 124 9 -5 l-1 -81 141 -7 c78 -4 297
-6 486 -5 189 1 347 -1 351 -4 3 -4 -215 -7 -486 -7 -464 0 -492 -1 -489 -17
3 -17 35 -18 498 -18 l494 0 4 88 c2 59 -1 93 -8 103 -10 11 -9 14 4 14 9 0
16 -8 16 -20 0 -13 7 -20 19 -20 13 0 21 10 25 34 4 18 4 40 1 48 -4 9 1 18 9
21 13 5 16 27 16 132 0 69 4 125 9 125 5 0 9 -48 10 -107z m-4199 -34 l0 -78
-57 2 -58 2 -3 76 -3 76 61 -1 60 0 0 -77z m1140 2 l0 -76 -60 -1 -60 0 0 75
0 76 60 1 60 1 0 -76z m3210 -2 l0 -77 -57 2 -58 2 -3 75 -3 75 61 0 60 0 0
-77z m-4690 22 c0 -29 6 -43 23 -55 l22 -15 -23 -20 c-21 -18 -23 -27 -20 -93
3 -66 5 -73 23 -71 42 6 48 -11 21 -60 -14 -25 -26 -57 -26 -71 0 -14 -4 -28
-10 -31 -6 -4 -10 -127 -10 -337 0 -320 1 -330 20 -335 21 -6 30 -25 27 -61
-3 -35 -22 -31 -25 7 -2 23 -9 35 -23 38 -18 5 -19 18 -19 354 0 226 4 349 10
349 6 0 10 15 10 33 0 20 8 42 21 56 27 29 19 49 -18 44 l-28 -5 0 84 c0 71 3
86 20 100 20 18 20 18 0 35 -15 13 -20 29 -19 53 2 50 3 52 14 45 6 -3 10 -23
10 -44z m-740 -11 c10 -6 -176 -10 -513 -10 -355 0 -526 3 -522 10 8 14 1014
13 1035 0z m15 -61 c-8 -13 -1055 -11 -1055 2 0 5 239 9 531 9 372 0 528 -3
524 -11z m3823 -74 c33 -38 29 -86 -9 -124 -39 -39 -86 -42 -126 -7 -23 20
-28 32 -27 70 1 48 15 72 49 87 34 15 88 2 113 -26z m-2777 -68 c13 -10 17
-33 18 -108 l2 -96 -62 -2 -62 -1 5 97 c4 78 9 99 24 110 22 16 54 16 75 0z
m1139 -2 c7 -9 15 -56 18 -110 l5 -95 -62 0 -61 0 0 92 c0 71 4 95 17 110 20
22 66 24 83 3z m156 -1 c-3 -9 -9 -41 -13 -71 -4 -42 -3 -57 8 -64 8 -6 199
-9 486 -7 259 2 475 0 479 -4 4 -5 -214 -8 -485 -8 -464 0 -492 -1 -489 -17 3
-17 37 -18 493 -23 270 -3 485 -8 478 -13 -6 -4 -223 -7 -481 -6 -258 1 -475
-2 -481 -6 -7 -4 -15 -4 -19 0 -12 11 -12 195 -1 195 6 0 8 9 4 20 -5 15 -2
20 10 20 12 0 15 -5 11 -16z m3056 -1 c11 -13 16 -45 17 -110 l2 -93 -62 0
-62 0 6 96 c3 52 11 102 17 110 17 19 64 18 82 -3z m2091 -35 c-1 -32 -6 -52
-12 -50 -6 1 -11 -2 -11 -8 0 -5 7 -10 16 -10 15 0 15 -2 2 -22 -8 -13 -13
-27 -11 -33 2 -6 94 -9 258 -7 158 2 262 -1 273 -7 12 -7 -75 -10 -275 -11
-161 0 -293 -4 -293 -9 0 -12 -97 -51 -126 -51 -13 0 -24 5 -24 10 0 6 10 10
22 10 12 0 41 7 65 16 60 23 84 71 79 159 -3 60 -1 65 18 65 19 0 21 -5 19
-52z m-1839 29 c14 -10 19 -33 23 -114 l6 -101 -59 2 -59 2 0 74 c1 48 5 75
13 78 9 3 12 -15 12 -62 0 -41 4 -66 11 -66 7 0 10 22 7 63 -3 59 -2 62 19 62
13 0 22 5 20 10 -1 6 -19 10 -39 9 -42 -1 -51 19 -20 42 22 17 44 17 66 1z
m-4336 -9 c8 -8 12 -47 12 -108 l0 -96 -60 0 -60 1 0 77 c0 72 9 94 26 67 4
-8 9 -8 17 0 17 17 37 13 37 -6 0 -15 2 -16 10 -3 20 31 11 40 -40 40 -48 0
-50 1 -38 20 15 23 76 28 96 8z m613 -4 c8 -10 15 -52 17 -108 l4 -91 -61 0
-61 0 0 77 0 77 50 -3 c39 -3 50 -1 50 11 0 12 -10 14 -45 11 -36 -2 -45 0
-45 13 0 9 3 19 7 22 13 13 71 7 84 -9z m4354 -8 c0 -16 -7 -20 -40 -20 -26
-1 -40 -6 -39 -13 1 -7 2 -40 3 -74 1 -40 5 -58 12 -53 6 4 9 29 7 62 -2 38 1
56 10 59 9 4 12 -14 12 -67 0 -48 3 -69 11 -65 6 4 9 33 8 68 -2 40 1 62 9 65
7 2 12 0 12 -5 1 -4 2 -39 2 -78 l2 -69 -58 -2 -59 -2 5 98 c3 53 8 102 12
109 5 7 25 11 49 9 34 -2 42 -7 42 -22z m2703 -127 c-15 -8 -18 -25 -18 -97 0
-52 -5 -93 -11 -99 -9 -9 -6 -19 10 -42 18 -25 27 -29 51 -24 23 4 34 0 48
-17 l19 -23 16 23 c11 16 22 21 39 17 18 -5 23 -13 22 -39 -1 -27 -5 -34 -24
-36 -13 -2 -27 3 -32 11 -4 9 -33 21 -62 28 -30 6 -67 22 -83 34 -25 21 -28
28 -26 82 3 98 14 178 27 185 6 4 18 8 26 8 12 -1 11 -3 -2 -11z m-663 -59 c0
-45 0 -45 -37 -48 -38 -3 -50 -16 -25 -25 6 -3 -25 -6 -71 -6 l-82 -1 1 -326
c1 -227 -2 -329 -10 -337 -8 -8 -11 13 -11 81 l0 92 -60 0 c-37 0 -60 4 -60
11 0 7 23 10 68 8 54 -3 67 -1 67 11 0 12 -14 14 -77 11 -50 -2 -78 1 -78 8 0
6 31 11 73 13 39 2 71 6 70 11 -2 4 -3 102 -3 217 l0 210 -337 -2 -338 -3 3
-195 c2 -121 -1 -201 -7 -210 -8 -11 -11 31 -12 140 -1 85 -2 178 -3 205 l-1
50 -80 5 c-61 4 -75 7 -60 15 12 5 219 10 501 10 264 1 486 5 492 9 7 4 12 24
12 45 0 45 6 53 40 49 23 -3 25 -7 25 -48z m-4666 -7 c5 -10 9 -56 9 -102 l0
-83 -39 5 c-21 3 -42 1 -45 -5 -3 -5 -13 -8 -22 -6 -14 3 -17 18 -18 83 -2
112 5 125 60 125 33 0 48 -5 55 -17z m-5036 -137 c18 -7 45 -29 60 -47 15 -19
32 -39 37 -46 6 -7 10 -16 10 -20 0 -4 -67 -8 -150 -8 -156 0 -170 4 -130 40
11 10 20 24 20 31 0 7 9 16 20 19 11 3 20 10 20 15 0 5 15 14 33 19 44 13 44
13 80 -3z m1803 -7 c40 -22 66 -49 90 -93 l16 -29 -29 8 c-33 8 -235 7 -258
-1 -20 -8 -20 19 0 36 8 7 12 16 10 20 -10 16 85 77 122 79 7 1 29 -8 49 -20z
m644 -135 c0 -64 -3 -85 -12 -81 -9 3 -12 22 -10 64 2 37 0 63 -7 67 -8 5 -11
-14 -11 -58 l0 -66 -40 0 -40 0 0 75 0 74 50 -3 c28 -2 50 0 50 5 0 5 5 9 10
9 6 0 10 -35 10 -86z m1093 72 l47 3 0 -75 0 -74 -60 0 -60 0 0 81 c0 64 3 79
13 72 6 -6 33 -9 60 -7z m3215 0 l42 3 0 -73 0 -74 -60 0 -60 0 0 73 c0 74 5
91 24 76 6 -5 30 -7 54 -5z m-4048 -75 l0 -76 -60 0 -60 0 0 76 0 75 60 0 60
0 0 -75z m620 0 l0 -76 -60 0 -60 0 0 76 0 76 60 0 60 0 0 -76z m3728 0 l-3
-76 -54 0 -55 0 0 76 -1 75 58 0 58 0 -3 -75z m615 0 l-2 -76 -55 0 -56 -1 0
76 0 76 58 0 57 0 -2 -75z m-2729 17 c3 -13 6 -58 6 -100 l0 -78 -60 0 -61 0
2 63 c0 34 3 79 6 100 5 37 5 37 53 37 41 0 49 -3 54 -22z m240 0 c4 -13 8
-58 9 -100 l3 -77 -62 0 -63 0 1 77 c1 109 7 122 62 122 37 0 45 -4 50 -22z
m245 0 c4 -13 9 -58 9 -100 1 -76 0 -78 -23 -78 -31 0 -35 9 -26 51 11 51 2
129 -15 129 -11 0 -13 -9 -8 -40 5 -27 3 -40 -5 -40 -8 0 -9 -5 -1 -19 5 -11
10 -33 10 -50 0 -28 -3 -31 -29 -31 l-30 0 1 78 c1 110 7 122 63 122 38 0 47
-4 54 -22z m2473 -60 c1 -35 1 -74 0 -88 -1 -14 -2 -94 -2 -178 -1 -145 -3
-153 -19 -138 -10 9 -26 13 -40 9 l-23 -6 4 104 3 104 33 14 c17 8 32 21 32
28 0 10 -23 13 -94 13 l-95 0 5 -32 c3 -18 1 -44 -5 -58 -7 -19 -10 4 -10 95
-1 83 2 115 9 105 6 -8 9 -31 8 -50 l-3 -35 90 0 90 0 3 33 c4 39 -17 63 -47
55 -18 -5 -21 -1 -21 25 0 17 -3 37 -6 46 -5 13 2 16 40 16 l46 0 2 -62z
m-5220 -195 c32 -29 22 -43 -29 -43 l-48 0 3 -70 c4 -84 22 -94 22 -12 0 64 6
78 27 61 9 -8 17 -8 26 0 8 6 17 8 20 4 8 -7 10 -137 3 -144 -2 -2 -31 -3 -63
-1 l-58 4 3 91 c3 78 6 95 24 110 25 21 46 22 70 0z m206 1 c20 -14 22 -23 22
-115 0 -76 -3 -100 -12 -96 -9 2 -12 27 -11 85 1 64 -2 82 -14 86 -18 7 -63
-3 -63 -14 0 -16 21 -22 35 -10 21 17 27 -3 23 -80 l-3 -62 -39 -3 -39 -2 5
94 c7 123 36 159 96 117z m205 2 c15 -12 20 -33 24 -109 6 -96 -2 -122 -31
-98 -7 6 -16 8 -19 4 -4 -3 -20 -7 -37 -8 l-30 -3 0 74 0 74 35 0 35 0 0 -61
c0 -38 4 -58 10 -54 6 4 10 35 9 70 -2 70 -9 79 -59 68 -37 -7 -41 17 -7 40
27 20 47 20 70 3z m211 -5 c25 -27 11 -43 -33 -39 -20 2 -37 0 -38 -4 -2 -5
-3 -38 -3 -74 0 -43 4 -63 10 -59 6 4 10 31 9 61 -3 57 6 78 21 54 7 -12 12
-12 22 -2 23 23 28 12 28 -62 l0 -74 -56 -4 c-31 -1 -56 -2 -57 -1 -1 1 -1 46
1 101 3 91 5 100 25 110 33 16 52 14 71 -7z m3486 4 c18 -22 6 -29 -46 -26
-34 1 -45 -1 -42 -11 3 -9 21 -12 51 -11 l47 2 0 -78 0 -77 -61 0 -62 0 6 97
c3 54 8 103 12 108 10 17 81 13 95 -4z m254 0 c16 -12 20 -31 24 -112 l4 -98
-61 0 -61 0 0 78 c0 70 9 93 25 67 4 -6 12 -7 18 -3 7 4 22 6 34 5 11 -2 24 2
28 7 4 7 -11 11 -44 11 -58 0 -74 16 -41 42 27 22 48 22 74 3z m204 -1 c20
-14 22 -23 22 -112 l0 -97 -57 2 -58 1 1 93 c1 83 3 94 23 111 28 22 40 23 69
2z m206 3 c15 -11 19 -29 20 -112 l1 -99 -59 -1 -59 -1 6 100 c4 80 9 103 23
113 23 17 45 17 68 0z m204 1 c7 -7 12 -20 12 -30 0 -14 -8 -18 -40 -18 l-40
0 0 -71 c0 -49 3 -68 11 -63 7 4 9 25 7 55 -3 32 -1 53 8 59 8 8 14 8 19 0 4
-7 12 -7 26 0 24 13 27 7 31 -80 l4 -65 -66 2 -65 1 1 97 c1 81 4 98 20 110
23 18 56 19 72 3z m-2227 -27 c1 -9 3 -53 5 -97 l3 -82 -65 0 -64 -1 4 96 c2
52 8 98 14 102 6 3 31 5 56 3 34 -3 46 -8 47 -21z m-488 5 c3 -8 6 -52 6 -99
l0 -85 -60 0 -59 0 1 62 c0 33 3 78 6 99 5 37 5 37 53 37 32 0 50 -5 53 -14z
m248 -31 c4 -22 3 -45 -3 -52 -5 -7 -7 -17 -3 -23 4 -6 8 -26 11 -44 l4 -33
-65 0 -65 0 1 61 c0 33 3 78 6 99 l5 38 51 -3 52 -3 6 -40z m-1697 -1 c3 -9 7
-34 8 -57 l1 -42 6 50 c6 49 6 49 44 51 l37 1 0 -77 0 -77 -60 1 -60 0 0 83
c0 77 10 104 24 67z m-1044 -74 l0 -77 -60 0 -60 0 0 77 0 77 60 0 60 0 0 -77z"/>
<path d="M11468 9088 c-31 -34 -35 -44 -26 -61 5 -11 8 -37 5 -58 -6 -44 1
-47 44 -22 26 16 29 16 47 0 31 -28 39 -20 44 43 4 59 3 62 -33 100 -21 22
-40 40 -41 40 -2 0 -20 -19 -40 -42z"/>
<path d="M11097 8762 c-32 -2 -47 -7 -44 -15 2 -7 18 -11 37 -9 21 2 30 0 25
-7 -3 -6 -17 -11 -31 -11 l-24 0 0 -140 c0 -119 2 -140 15 -140 12 0 13 -4 7
-17 -16 -29 -3 -83 19 -83 12 0 19 7 19 18 0 10 5 23 12 30 8 8 8 15 -2 27
-10 12 -11 18 -2 24 12 7 19 261 8 280 -4 5 2 14 11 20 28 15 4 26 -50 23z"/>
<path d="M12298 7943 c-38 -4 -54 -23 -20 -23 9 -1 233 -1 497 -1 408 1 480 3
483 15 3 12 -64 14 -460 13 -255 0 -480 -2 -500 -4z"/>
<path d="M11447 8712 c-37 -39 -36 -84 2 -123 37 -37 79 -38 120 -3 25 21 31
33 31 65 0 82 -96 120 -153 61z"/>
<path d="M15796 8715 c-37 -34 -36 -87 3 -126 40 -40 82 -39 123 1 27 27 30
36 25 71 -10 75 -95 106 -151 54z"/>
<path d="M13665 8443 c-35 -9 -45 -24 -45 -68 0 -34 5 -46 25 -59 34 -23 62
-20 90 9 54 53 5 136 -70 118z"/>
<path d="M14297 11128 c2 -595 4 -673 18 -672 8 0 245 1 525 2 l510 2 0 670 0
670 -527 0 -528 0 2 -672z m228 557 l0 -60 -76 -3 -75 -3 2 63 c2 35 3 64 4
66 0 2 33 2 73 0 l72 -3 0 -60z m428 0 l0 -60 -137 -3 -136 -3 0 66 0 66 136
-3 137 -3 0 -60z m305 -3 l3 -63 -78 3 -78 3 -3 49 c-5 75 -3 77 80 74 l73 -3
3 -63z m-728 -163 l0 -59 -78 0 -78 0 2 63 c2 34 3 62 3 62 1 0 35 -1 76 -3
l75 -4 0 -59z m425 1 l0 -60 -137 0 -138 0 0 60 0 60 138 0 137 0 0 -60z m305
0 l0 -60 -80 0 -80 0 0 60 0 60 80 0 80 0 0 -60z m-730 -160 l0 -60 -77 0 -78
0 0 60 0 60 78 0 77 0 0 -60z m425 0 l0 -60 -137 0 -138 0 0 60 0 60 138 0
137 0 0 -60z m305 0 l0 -60 -80 0 -80 0 0 60 0 60 80 0 80 0 0 -60z m-732
-161 l-3 -61 -74 0 -74 0 -1 61 -1 61 78 0 78 0 -3 -61z m422 6 c0 -30 -1 -58
-2 -61 -2 -3 -63 -7 -135 -8 l-133 -1 0 63 0 62 135 0 135 0 0 -55z m310 -5
l0 -60 -80 0 -80 0 0 60 0 60 80 0 80 0 0 -60z m-735 -165 l0 -60 -73 0 -74 0
-1 63 -2 63 75 -3 75 -3 0 -60z m428 0 l0 -60 -137 -3 -136 -3 0 66 0 66 136
-3 137 -3 0 -60z m305 3 l-3 -63 -75 0 -75 0 -3 63 -3 62 81 0 81 0 -3 -62z
m-733 -163 l0 -60 -75 0 -74 0 1 60 c1 33 2 61 2 61 1 1 34 1 74 0 l72 -1 0
-60z m428 0 l0 -60 -137 -3 -136 -3 0 64 0 63 136 0 137 -1 0 -60z m305 -3 l3
-63 -78 3 -78 3 -3 49 c-5 74 -3 76 80 73 l73 -2 3 -63z m-730 -161 l3 -61
-71 0 c-38 0 -73 0 -76 0 -5 0 -9 105 -5 123 1 1 34 1 73 0 l73 -1 3 -61z
m422 59 c3 0 5 -27 5 -60 l0 -60 -137 0 -138 0 0 63 0 62 132 -2 c73 -1 135
-3 138 -3z m310 -60 l0 -60 -80 0 -80 0 0 60 0 60 80 0 80 0 0 -60z m-730
-160 l0 -60 -70 0 c-38 0 -73 0 -77 0 -3 0 -7 27 -7 60 l-1 60 78 0 77 0 0
-60z m425 3 c0 -32 -3 -60 -6 -63 -4 -3 -66 -4 -138 -2 l-131 3 0 60 0 59 138
0 137 0 0 -57z m303 -5 c-2 -35 -6 -62 -10 -60 -5 1 -39 2 -78 2 l-70 0 0 60
0 60 80 0 81 0 -3 -62z"/>
<path d="M11640 11583 l0 -103 420 -2 c231 -1 439 -2 463 -3 l42 0 3 102 3
103 -466 2 -465 3 0 -102z"/>
<path d="M7350 10970 c0 -15 -7 -20 -29 -20 -55 0 -61 -7 -61 -71 l0 -59 609
0 c335 0 616 3 625 6 12 5 16 20 16 59 0 57 -8 65 -72 65 -17 0 -28 5 -28 14
0 7 -10 16 -22 20 -13 3 -251 6 -530 6 -501 0 -508 0 -508 -20z"/>
<path d="M10550 10929 c0 -19 -4 -28 -11 -23 -8 4 -9 -3 -4 -25 8 -39 -3 -80
-17 -60 -7 10 -8 5 -3 -14 7 -35 -3 -70 -17 -61 -7 5 -9 -2 -4 -20 9 -35 -3
-83 -16 -64 -7 9 -8 5 -4 -12 7 -33 -3 -72 -17 -63 -6 4 -8 -3 -4 -18 8 -31
-2 -71 -16 -62 -6 4 -8 -3 -4 -18 8 -31 -2 -71 -16 -62 -6 4 -8 -4 -3 -21 8
-32 -1 -69 -14 -61 -5 3 -8 -12 -6 -35 3 -30 0 -40 -11 -40 -11 0 -13 -7 -9
-27 4 -14 2 -39 -5 -55 -9 -23 -9 -35 1 -56 7 -15 16 -36 20 -47 4 -11 13 -33
19 -48 6 -15 11 -37 11 -47 0 -45 24 -13 83 108 34 70 66 133 71 141 9 13 17
-4 75 -151 5 -13 14 -36 20 -51 13 -33 14 -57 3 -57 -4 0 -14 21 -21 48 -8 26
-17 52 -22 57 -4 6 -15 34 -24 63 -10 29 -23 52 -31 52 -8 0 -14 -6 -14 -14 0
-24 -93 -215 -102 -210 -5 3 -7 -58 -6 -137 l3 -142 109 1 c59 0 110 3 113 6
3 3 4 63 4 135 -2 106 1 131 13 138 29 16 69 142 71 223 1 42 -2 66 -6 55 -4
-11 -8 -15 -9 -10 0 6 -4 27 -9 47 -5 22 -5 36 0 32 5 -3 9 2 9 10 0 9 -6 15
-12 14 -9 -2 -13 11 -11 42 1 30 -1 38 -6 25 -7 -17 -9 -16 -15 12 -4 18 -5
43 -1 55 4 16 3 19 -3 10 -14 -21 -24 13 -16 54 5 30 4 33 -11 28 -16 -6 -17
-2 -11 39 6 42 5 46 -10 40 -15 -5 -16 -1 -10 40 6 42 5 46 -10 40 -15 -5 -16
-1 -10 40 6 42 5 46 -10 40 -15 -5 -16 -1 -10 41 6 36 4 46 -6 44 -8 -2 -14 9
-16 30 -4 43 -32 44 -32 1z"/>
<path d="M4207 10803 c-14 -4 -16 -11 -11 -38 5 -31 4 -33 -30 -39 -27 -5 -36
-12 -36 -26 0 -11 5 -20 10 -20 24 0 7 -29 -20 -35 -17 -4 -30 -13 -30 -21 0
-9 5 -12 10 -9 6 4 9 -19 8 -62 l-1 -68 -7 60 c-8 75 -10 54 -19 -195 l-6
-185 -26 -3 c-20 -2 -28 -10 -32 -30 -3 -15 -4 -333 -3 -707 1 -374 0 -688 -2
-697 -4 -16 -17 -18 -93 -18 l-89 0 0 95 c0 57 -4 95 -10 95 -5 0 -10 5 -10
11 0 5 5 7 10 4 7 -4 10 193 10 584 l0 591 -405 0 c-379 0 -405 -1 -406 -17
-7 -135 -4 -1311 4 -1320 5 -7 24 -13 41 -13 18 0 38 -6 44 -12 10 -10 17 -10
32 0 27 17 50 15 66 -5 13 -17 15 -17 28 0 16 21 55 22 62 2 4 -8 12 -15 19
-15 7 0 15 7 19 15 7 19 26 19 62 0 25 -13 29 -13 37 0 11 20 36 19 60 -2 18
-17 19 -17 28 0 12 21 55 23 63 2 3 -8 12 -15 20 -15 7 0 16 7 20 15 7 20 46
19 62 -2 13 -17 15 -17 28 0 16 20 54 23 62 3 3 -8 13 -12 25 -9 10 3 19 1 19
-3 0 -5 -174 -9 -387 -9 -300 0 -387 3 -390 13 -6 17 -23 15 -45 -5 -10 -9
-18 -12 -18 -7 0 5 -25 7 -55 6 -49 -3 -59 -8 -98 -47 -36 -37 -43 -51 -46
-88 -1 -25 -6 -67 -11 -94 -7 -43 -8 -38 -9 45 0 50 -5 92 -9 92 -5 0 -9 20
-10 45 0 25 -6 52 -12 60 -10 12 -9 15 4 15 11 0 16 9 16 33 0 23 -3 28 -9 18
-7 -11 -11 -5 -16 22 -7 36 -23 59 -60 87 -19 14 -19 14 -6 -3 24 -30 6 -28
-29 5 -24 21 -35 27 -39 17 -2 -7 -24 -35 -49 -61 -46 -49 -59 -92 -39 -132 7
-14 5 -21 -7 -28 -9 -5 -16 -22 -16 -38 l0 -29 123 -4 122 -3 -127 -2 c-77 -1
-129 -6 -133 -13 -4 -6 -8 -51 -10 -100 -3 -85 -2 -89 19 -95 25 -6 264 -1
286 6 12 4 14 -60 16 -475 2 -477 -6 -682 -16 -385 l-5 155 -130 2 c-71 1
-130 5 -130 10 0 4 58 9 129 10 70 1 133 6 138 11 25 25 -7 32 -143 32 -91 0
-138 4 -134 10 4 6 62 10 141 10 l134 0 0 60 0 60 -140 0 c-188 0 -186 19 3
22 118 3 142 5 142 18 0 12 -22 15 -130 18 -179 3 -190 16 -20 22 l140 5 3
158 3 157 -151 0 -150 0 -2 -27 c-1 -16 -1 -37 0 -48 1 -11 2 -210 2 -442 l1
-423 29 0 c25 0 30 4 30 24 0 31 42 82 74 90 52 13 116 -34 116 -84 0 -29 2
-30 45 -30 41 0 45 2 45 24 0 14 11 38 24 53 20 23 32 28 71 28 39 0 51 -5 71
-28 13 -15 24 -39 24 -53 0 -21 5 -24 35 -24 32 0 35 3 35 29 0 37 49 81 92
81 38 0 88 -48 88 -84 0 -24 4 -26 40 -26 37 0 40 2 40 28 0 35 34 69 78 78
48 10 100 -29 104 -76 4 -46 32 -49 36 -4 2 18 14 42 28 55 49 46 154 20 154
-39 0 -34 14 -57 29 -48 6 4 11 20 11 35 0 42 42 76 95 76 52 0 80 -22 92 -72
10 -42 26 -45 34 -5 8 42 17 52 56 69 63 26 119 -3 132 -67 8 -42 24 -42 32
-1 9 45 36 69 85 77 34 5 45 2 68 -18 15 -13 31 -38 34 -56 9 -42 25 -42 33
-1 9 43 36 67 84 74 49 8 90 -19 103 -68 7 -27 14 -33 41 -35 29 -3 32 -1 26
17 -9 28 10 89 36 117 58 62 156 -8 147 -104 -2 -28 1 -37 12 -37 11 0 17 15
20 50 7 57 22 90 50 105 58 31 115 -13 127 -100 9 -62 27 -73 31 -20 4 60 12
81 39 106 62 57 143 3 143 -95 0 -39 2 -41 30 -41 24 0 30 4 30 21 0 46 52 89
109 89 30 0 72 -41 80 -79 7 -39 31 -55 31 -21 0 53 49 100 105 100 35 0 85
-46 85 -79 0 -15 3 -31 7 -34 11 -11 33 14 33 37 0 29 38 64 77 72 42 8 91
-18 99 -54 12 -55 16 -63 27 -59 7 2 15 20 18 41 6 38 28 61 67 72 51 14 113
-24 116 -71 2 -17 6 -31 9 -32 19 -8 27 0 27 25 0 31 30 65 68 77 54 16 122
-34 122 -90 0 -37 23 -26 31 14 11 51 41 76 95 76 38 0 50 -5 70 -28 13 -15
24 -39 24 -53 0 -23 3 -25 36 -22 32 3 37 7 40 32 4 40 33 66 81 73 32 4 44 1
71 -22 22 -18 32 -36 32 -54 0 -35 5 -39 34 -34 17 4 27 15 34 42 12 37 53 71
87 71 41 0 85 -32 96 -70 10 -34 14 -37 50 -38 36 -2 39 0 39 24 0 31 61 94
91 94 49 0 109 -55 109 -100 0 -16 6 -20 30 -20 l30 0 -1 270 0 270 -148 0
c-81 0 -150 -2 -152 -4 -2 -2 -2 -29 -1 -60 l4 -56 140 0 c90 0 137 -4 133
-10 -4 -6 -62 -10 -140 -10 -131 0 -150 -4 -140 -32 4 -10 33 -12 131 -10 69
2 133 0 142 -5 10 -5 -40 -10 -127 -13 l-143 -5 1 -152 c1 -101 -2 -153 -9
-153 -7 0 -10 188 -10 594 0 386 -4 597 -10 601 -5 3 -10 15 -10 27 0 11 -8
22 -19 25 -10 2 -24 15 -31 29 -12 22 -17 23 -70 17 -45 -4 -63 -2 -84 12 -25
16 -28 16 -45 1 -15 -14 -56 -16 -344 -16 -295 0 -327 2 -327 16 0 13 3 14 14
5 10 -9 16 -8 26 4 18 21 162 21 180 0 12 -14 15 -14 30 0 22 20 289 22 308 3
10 -10 17 -10 32 0 11 6 51 12 90 12 39 0 79 -6 90 -12 12 -8 22 -9 27 -3 5 6
7 81 5 168 -3 151 -4 158 -22 152 -20 -6 -20 2 -20 447 l0 453 -331 -3 c-230
-2 -335 0 -343 8 -8 8 78 10 309 10 l319 -2 9 27 c8 22 5 29 -12 41 -12 8 -21
24 -21 35 0 10 -5 19 -10 19 -6 0 -15 10 -20 23 -5 12 -18 36 -29 52 -12 17
-21 37 -21 46 0 9 -6 19 -12 22 -16 6 -68 101 -68 122 0 8 -4 15 -9 15 -6 0
-18 14 -28 30 -12 21 -25 30 -43 30 l-26 0 4 85 c4 83 4 85 -18 85 -22 0 -22
-3 -17 -53 4 -28 3 -66 -2 -82 -7 -26 -12 -30 -40 -28 -23 1 -31 -3 -27 -12 2
-7 -6 -29 -20 -48 -13 -20 -42 -71 -65 -114 -22 -42 -54 -94 -70 -114 -16 -20
-29 -42 -29 -48 0 -7 -10 -25 -21 -40 -12 -16 -20 -34 -17 -41 2 -8 88 -11
313 -11 189 0 302 -4 290 -9 -11 -5 -150 -9 -310 -9 -159 0 -298 -1 -307 -1
-10 0 -18 -7 -18 -15 0 -8 -4 -15 -10 -15 -5 0 -10 -7 -10 -15 0 -8 -4 -15
-10 -15 -5 0 -10 -7 -10 -15 0 -8 5 -15 10 -15 6 0 9 -63 8 -172 l-2 -173 -6
145 c-4 98 -7 18 -8 -247 -1 -280 -5 -393 -13 -393 -6 0 -9 -7 -5 -15 3 -8 0
-14 -7 -12 -9 1 -12 -37 -14 -151 -1 -85 -3 -155 -5 -157 -2 -1 -47 -5 -100
-7 -90 -4 -114 1 -88 17 10 6 13 1106 4 1158 -5 25 -9 27 -60 27 -53 0 -54 0
-54 30 l0 30 -210 0 -210 0 0 -30 c0 -30 -1 -30 -54 -30 -39 0 -55 -4 -60 -15
-8 -21 -8 -1123 -1 -1135 4 -6 12 -10 20 -10 9 0 15 15 17 47 4 64 26 69 30 6
3 -40 6 -48 23 -48 17 0 20 7 20 42 0 23 3 45 7 49 4 4 3 13 -3 21 -9 9 -8 17
0 27 8 10 9 16 1 21 -17 10 -11 25 9 25 18 0 20 -7 19 -87 0 -71 3 -89 16 -98
27 -16 36 12 32 103 -4 75 -3 82 14 82 15 0 18 -7 17 -32 -2 -18 -6 -38 -10
-45 -4 -6 -3 -14 2 -17 5 -4 8 -21 5 -39 -6 -42 9 -66 33 -51 12 7 18 24 18
50 0 28 4 39 15 39 12 0 14 -10 12 -42 -3 -33 0 -44 13 -49 23 -9 36 7 38 52
2 26 8 39 17 39 11 0 14 -10 12 -42 -3 -33 0 -44 13 -49 23 -9 36 7 38 51 4
56 27 58 27 2 0 -51 23 -80 58 -70 15 3 24 0 28 -11 8 -20 34 -21 34 -1 0 8 9
15 20 15 28 0 25 -30 -2 -32 -72 -4 -95 -2 -118 12 -19 12 -63 15 -225 16
-110 1 -226 4 -257 8 -56 7 -58 9 -58 37 0 20 -5 29 -16 29 -11 0 -14 5 -10
16 3 9 6 67 6 130 0 74 4 113 10 109 6 -3 10 5 10 18 0 14 -7 27 -15 31 -8 3
-15 12 -15 20 0 10 6 13 15 10 12 -5 15 2 15 30 0 25 -4 36 -15 36 -8 0 -15 9
-15 19 0 11 -7 26 -15 35 -8 8 -15 19 -15 25 0 14 -23 14 -37 0 -7 -7 -9 -3
-6 15 8 42 -5 75 -52 125 -25 26 -42 50 -40 53 3 3 -1 11 -10 18 -10 8 -15 9
-15 2 0 -21 -28 -1 -34 24 -4 14 -14 24 -24 24 -16 1 -16 2 1 14 15 11 18 26
16 67 -2 34 1 54 9 57 13 4 17 62 4 62 -4 0 -13 -5 -20 -12 -8 -8 -40 -12 -91
-10 -48 1 -82 -2 -86 -8 -11 -17 16 -41 37 -34 17 5 19 1 16 -45 -2 -28 -7
-51 -13 -51 -5 1 -9 12 -7 25 2 13 -2 32 -8 42 -9 14 -10 3 -6 -49 5 -65 4
-68 -25 -92 -17 -15 -34 -26 -39 -26 -5 0 -30 -25 -55 -55 -37 -43 -49 -65
-52 -99 -5 -37 -2 -46 15 -55 45 -24 64 -67 69 -157 2 -55 0 -84 -7 -84 -6 0
-10 33 -10 86 l0 86 -40 40 c-22 23 -40 45 -40 50 0 5 -4 6 -10 3 -5 -3 -10
-12 -10 -20 0 -8 -13 -29 -30 -47 -25 -27 -30 -29 -30 -13 0 11 10 30 23 41
12 12 30 44 39 71 10 26 33 67 53 90 20 24 35 52 35 67 0 27 18 34 37 15 8 -8
17 -6 32 7 18 16 21 29 21 99 0 50 -5 86 -12 93 -9 10 -9 15 2 27 13 12 14 49
10 222 l-5 208 -27 0 c-32 0 -44 10 -32 27 11 15 11 211 -1 350 -8 95 -8 96
-36 102 -27 5 -43 36 -19 36 6 0 10 8 10 18 0 12 -11 21 -32 27 -31 9 -33 13
-30 48 l3 37 -243 -1 c-134 -1 -251 -3 -261 -6z m412 -1579 c12 -19 21 -43 21
-53 0 -10 3 -20 6 -24 4 -3 7 -79 8 -169 l1 -163 40 -6 c38 -6 38 -6 -8 -4
-26 1 -50 -1 -52 -5 -3 -4 -16 -10 -30 -12 -20 -4 -26 -1 -31 19 -8 31 2 40
26 25 11 -7 21 -12 23 -12 1 0 3 54 4 120 l1 120 -29 0 c-30 0 -38 20 -19 50
7 12 12 12 29 -4 21 -19 21 -19 21 0 0 10 -3 36 -6 57 -6 31 -11 37 -30 37
-24 0 -30 14 -18 44 9 24 20 19 43 -20z m694 -572 c2 -22 3 -50 0 -63 -4 -24
-4 -24 -129 -21 l-126 3 -30 35 c-39 45 -69 44 -105 -1 l-28 -35 -116 0 c-63
0 -119 -4 -125 -9 -5 -6 -9 9 -10 42 -1 29 1 41 4 27 2 -14 9 -28 16 -32 6 -4
55 -8 110 -8 l99 0 38 35 c51 46 84 46 129 0 l35 -36 110 3 110 3 0 52 c0 59
10 62 18 5z m-2033 -88 l0 -44 679 0 c534 0 680 3 684 13 3 6 6 3 6 -9 l1 -20
-627 1 c-346 1 -654 -1 -685 -3 l-58 -5 -1 -546 c0 -343 -4 -535 -10 -516 -5
17 -8 278 -8 585 1 305 -1 565 -5 578 -6 17 -4 21 8 16 11 -4 16 -19 16 -50z
m3409 -531 c0 -318 -4 -587 -9 -598 -5 -12 -8 204 -7 521 l2 542 -55 4 c-68 5
-1279 2 -1300 -3 -9 -3 -16 5 -18 21 -3 20 -1 23 9 13 10 -10 159 -13 679 -13
366 0 670 4 675 8 12 8 13 52 2 70 -5 8 -3 12 7 12 13 0 15 -70 15 -577z"/>
<path d="M9430 10673 c0 -18 -41 -83 -52 -83 -7 0 -8 -16 -5 -43 l6 -44 -54 5
-55 4 0 -50 c0 -90 -37 -82 401 -82 l389 0 0 65 0 65 -34 0 c-24 0 -36 5 -39
18 -4 13 -5 13 -6 -4 -1 -13 -10 -24 -23 -28 -41 -11 -558 -7 -558 4 0 7 93
10 277 10 247 -1 278 1 286 15 5 9 7 27 5 40 -4 18 -1 22 11 18 9 -2 7 1 -4 8
-29 17 -54 51 -48 65 8 20 -25 24 -270 26 -171 2 -227 0 -227 -9z"/>
<path d="M1998 10273 l-3 -58 -197 -3 c-167 -2 -198 -5 -198 -17 0 -8 -7 -15
-15 -15 -12 0 -15 -17 -15 -90 0 -79 2 -90 18 -90 9 0 212 0 450 0 280 0 432
-4 432 -10 0 -7 -154 -10 -439 -10 -262 0 -450 -4 -465 -10 l-26 -10 0 -680 0
-680 64 0 64 0 -5 39 c-5 34 -3 39 19 43 37 7 44 0 40 -37 -2 -20 1 -42 8 -50
14 -17 5 -34 -10 -19 -5 5 -56 8 -112 7 -57 -2 -111 -3 -120 -3 -12 0 -18 -8
-18 -25 0 -23 -3 -25 -50 -25 l-50 0 0 -210 c0 -133 -4 -210 -10 -210 -6 0
-10 107 -10 300 0 293 0 300 -20 300 -14 0 -20 7 -20 21 0 20 -4 21 -40 15
-39 -6 -40 -6 -34 19 l6 25 -116 0 c-109 0 -116 -1 -116 -20 0 -13 -7 -20 -20
-20 -17 0 -19 -5 -14 -25 4 -15 2 -25 -5 -25 -6 0 -11 4 -11 9 0 4 -11 6 -25
3 l-25 -4 0 -299 c0 -193 -4 -299 -10 -299 -6 0 -10 55 -10 145 0 131 -2 145
-17 146 -18 0 -474 0 -505 -1 -16 0 -18 -14 -18 -145 l0 -145 -55 0 -55 0 0
-365 0 -365 768 0 c422 0 776 -1 787 -3 20 -2 20 4 20 568 l0 570 -167 3
c-198 3 -233 21 -45 23 67 1 128 1 135 0 6 -1 17 10 22 24 7 19 16 25 31 23
38 -6 48 -63 50 -282 1 -122 5 -207 12 -217 8 -13 7 -21 -2 -32 -10 -12 -10
-19 0 -35 10 -16 10 -23 0 -36 -11 -13 -11 -19 -1 -31 11 -13 11 -20 0 -40
-11 -20 -10 -26 5 -41 15 -16 15 -18 1 -26 -18 -10 -22 -38 -6 -38 15 0 12
-38 -2 -43 -10 -3 -10 -9 1 -30 12 -22 12 -29 1 -42 -20 -24 3 -40 58 -40 26
0 47 -4 47 -10 0 -5 -21 -10 -47 -10 -55 0 -78 -16 -58 -40 11 -13 11 -20 -1
-41 -12 -23 -11 -27 5 -36 17 -9 17 -11 0 -29 -15 -17 -16 -22 -4 -44 10 -20
11 -28 2 -37 -26 -26 -11 -33 61 -32 39 1 77 2 82 3 6 1 106 3 223 4 l212 2 1
415 1 415 -21 3 c-12 2 -26 15 -32 28 -7 20 -14 24 -30 19 -19 -6 -21 -4 -15
19 l6 26 -102 0 c-76 0 -99 3 -91 11 7 7 35 10 72 7 l61 -4 0 28 c0 24 4 28
30 28 27 0 30 -3 30 -31 0 -51 16 -69 60 -69 33 0 40 3 40 20 0 16 -5 19 -30
14 -29 -6 -30 -5 -30 30 0 34 2 36 31 36 24 0 30 4 27 18 -2 12 -11 16 -31 14
-25 -3 -27 -1 -27 32 0 33 2 36 30 36 23 0 30 4 30 20 0 16 -5 19 -30 14 -29
-6 -30 -6 -30 35 0 40 1 40 30 35 26 -6 30 -3 30 14 0 12 4 23 9 26 10 7 20
64 24 143 2 47 7 58 45 96 l42 43 0 526 c0 564 2 544 -49 531 -14 -4 -21 -1
-21 10 0 8 9 17 20 20 18 5 20 14 20 102 0 62 -4 94 -10 90 -6 -3 -13 1 -16 9
-5 14 -33 16 -200 16 l-194 0 0 44 c0 48 -7 76 -20 76 -5 0 -8 -29 -7 -64 l2
-65 -35 1 -35 0 2 64 c2 80 -15 85 -19 7z m14 -2095 c3 -7 4 -184 4 -392 -1
-293 -4 -380 -14 -384 -18 -6 -26 26 -12 43 10 13 9 19 -5 35 -17 19 -17 21 0
40 15 17 16 22 4 36 -10 13 -10 20 0 36 10 16 10 23 0 35 -10 12 -10 19 0 35
10 16 10 23 -3 36 -12 15 -12 20 -1 36 11 14 11 22 2 37 -9 14 -9 24 -1 36 8
13 8 23 0 35 -8 13 -7 23 2 39 11 16 11 24 1 36 -10 12 -10 19 0 35 10 16 10
23 0 35 -10 11 -10 19 -1 34 10 15 9 23 0 39 -10 15 -10 22 0 32 23 23 12 28
-58 28 -40 0 -70 4 -70 10 0 6 25 10 55 10 38 0 55 4 55 13 0 14 19 37 31 37
4 0 9 -6 11 -12z m-542 -43 c7 8 16 15 21 15 5 0 9 -167 9 -375 0 -240 -4
-375 -10 -375 -6 0 -11 127 -12 348 l-3 347 -58 -1 c-47 -1 -55 1 -46 12 6 8
17 14 24 14 7 0 16 7 19 16 6 15 8 15 25 0 16 -15 19 -15 31 -1z"/>
<path d="M10310 9945 c0 -163 -4 -255 -10 -255 -11 0 -14 -60 -2 -60 4 0 125
-1 269 -3 l261 -2 4 25 c2 14 2 143 0 288 -2 222 -5 262 -17 262 -8 0 -15 -9
-15 -20 0 -11 -4 -28 -9 -38 -6 -9 -22 -50 -37 -89 -15 -40 -31 -73 -36 -73
-4 0 -8 -63 -8 -140 0 -105 3 -140 13 -141 6 0 32 0 56 1 40 2 43 0 32 -14
-12 -14 -47 -16 -263 -16 -227 0 -249 1 -237 16 9 11 26 15 58 12 l46 -3 3
130 c1 72 -2 139 -7 150 -5 11 -14 36 -21 55 -17 49 -25 71 -40 101 -7 15 -9
36 -5 48 5 17 2 21 -14 21 -21 0 -21 -4 -21 -255z"/>
<path d="M10310 9475 l0 -135 50 0 49 0 78 100 c43 55 80 100 83 100 3 0 38
-45 79 -100 l74 -100 53 0 54 0 0 129 c0 108 -3 130 -16 135 -9 3 -126 6 -260
6 l-244 0 0 -135z"/>
<path d="M10540 9476 c-8 -14 -39 -54 -69 -90 -49 -60 -58 -66 -92 -66 -24 0
-39 -5 -43 -16 -3 -9 -6 -63 -6 -120 l0 -104 219 0 c211 0 220 1 226 20 3 11
13 20 20 20 10 0 12 -9 8 -35 -4 -23 0 -43 11 -60 16 -24 20 -25 131 -25 103
0 115 2 125 19 21 40 12 86 -29 137 -53 68 -63 91 -56 125 6 24 4 28 -10 23
-15 -6 -16 0 -10 58 6 53 4 66 -8 71 -11 4 -16 -5 -21 -34 -3 -21 -11 -39 -16
-39 -5 0 -9 -21 -7 -47 1 -32 -2 -47 -9 -46 -7 1 -10 -6 -7 -16 3 -11 -2 -27
-11 -38 -9 -10 -28 -33 -42 -50 -14 -18 -29 -33 -33 -33 -4 0 -6 36 -3 80 5
92 -3 110 -54 110 -28 0 -41 9 -89 66 -31 37 -63 77 -72 90 -20 30 -35 30 -53
0z m103 -111 c36 -25 77 -88 77 -120 0 -8 -10 -36 -21 -61 -52 -110 -204 -113
-259 -5 -24 47 -25 82 -6 119 16 30 63 77 86 85 37 13 87 6 123 -18z"/>
<path d="M10513 9340 c-72 -43 -80 -124 -17 -179 50 -45 104 -43 150 3 28 28
34 42 34 75 0 49 -22 86 -61 107 -38 19 -68 18 -106 -6z"/>
<path d="M16415 9383 c-17 -133 -40 -187 -99 -242 -28 -26 -34 -69 -16 -116
l10 -26 122 3 123 3 9 47 c8 40 6 50 -13 73 -11 15 -21 35 -21 45 0 9 -12 22
-26 28 -19 9 -24 17 -19 32 4 14 2 20 -8 20 -9 0 -16 13 -19 34 -2 19 0 32 4
30 4 -3 8 2 8 11 0 9 -4 14 -9 10 -14 -8 -23 31 -16 65 5 23 3 30 -9 30 -10 0
-17 -14 -21 -47z"/>
<path d="M18650 9355 l0 -45 198 0 c108 0 207 3 220 6 18 5 22 13 22 44 l0 38
-220 1 -220 2 0 -46z"/>
<path d="M10338 8925 c4 -117 2 -136 -12 -141 -43 -16 0 -22 183 -23 175 -2
199 0 205 14 9 25 7 128 -3 144 -7 10 1 30 25 65 19 28 34 56 34 63 0 10 -49
13 -218 13 l-218 0 4 -135z"/>
<path d="M19738 8942 c-30 -4 -38 -28 -16 -50 18 -18 347 -16 371 2 31 23 21
43 -26 50 -41 6 -274 5 -329 -2z"/>
<path d="M7285 8869 c-28 -23 -51 -47 -53 -55 -2 -8 -8 -14 -13 -14 -16 0 -10
-62 9 -76 16 -12 16 -14 -2 -27 -15 -11 -18 -21 -13 -45 4 -19 2 -32 -5 -34
-8 -3 -11 -35 -9 -104 1 -54 4 -100 6 -102 3 -3 110 -4 249 -2 28 0 36 5 46
30 10 23 10 37 2 55 -8 17 -8 32 1 54 10 27 8 33 -11 54 -17 18 -21 31 -16 54
5 26 3 32 -16 38 -16 5 -19 10 -11 18 17 17 13 99 -7 123 -20 24 -87 74 -99
74 -5 0 -31 -18 -58 -41z"/>
<path d="M19632 8833 l3 -28 255 -3 c140 -1 265 0 278 3 15 4 22 13 22 30 l0
25 -281 0 -280 0 3 -27z"/>
<path d="M19560 8725 c-1 -93 -1 -1127 0 -1242 l0 -103 350 0 350 0 0 703 0
702 -350 0 -350 0 0 -60z"/>
<path d="M10727 8757 c-9 -6 -9 -10 1 -14 9 -3 12 -44 12 -154 0 -99 4 -149
11 -149 6 0 8 -8 5 -17 -8 -29 8 -88 24 -88 8 0 15 9 15 20 0 11 7 25 15 31
11 9 12 15 2 26 -8 10 -8 18 -1 25 6 6 8 65 7 149 -3 136 -3 139 -25 136 -12
-2 -24 2 -28 8 -4 6 9 10 35 10 59 0 46 22 -14 24 -26 0 -53 -3 -59 -7z"/>
<path d="M19258 8613 c-14 -17 -1 -33 28 -33 20 0 24 -5 24 -30 0 -25 -4 -30
-24 -30 -17 0 -25 -7 -28 -25 -6 -30 -2 -35 29 -35 21 0 24 -4 21 -32 -2 -28
-7 -32 -25 -30 -20 3 -23 -1 -23 -27 0 -26 4 -31 25 -31 21 0 25 -5 25 -30 0
-25 -4 -30 -25 -30 -21 0 -25 -5 -25 -30 0 -25 4 -30 25 -30 21 0 25 -5 25
-30 0 -25 -4 -30 -25 -30 -22 0 -25 -4 -25 -33 0 -28 4 -33 23 -33 18 1 23 -5
25 -33 3 -32 2 -33 -22 -27 -19 5 -26 2 -26 -8 0 -8 -3 -21 -6 -29 -4 -11 2
-16 23 -19 24 -3 28 -8 28 -33 0 -25 -4 -30 -22 -28 -20 2 -23 -2 -23 -30 0
-28 4 -33 23 -33 18 1 22 -4 22 -29 0 -25 -4 -30 -21 -28 -22 2 -33 -17 -27
-48 3 -11 11 -15 29 -11 24 4 25 2 22 -29 -2 -29 -7 -34 -25 -32 -20 2 -23 -2
-23 -32 0 -30 3 -34 23 -32 18 2 22 -3 22 -28 0 -23 -5 -31 -22 -33 -18 -3
-23 -10 -23 -33 0 -24 4 -28 23 -26 18 2 22 -3 22 -28 0 -23 -5 -31 -21 -33
-21 -3 -38 -34 -26 -46 3 -3 68 -6 144 -6 l138 0 0 24 c0 18 -6 25 -22 28 -18
2 -23 10 -23 33 0 23 5 31 23 33 16 3 22 10 22 28 0 19 -5 24 -26 24 -23 0
-25 3 -22 33 2 24 8 33 26 35 16 2 22 10 22 27 0 17 -6 25 -22 27 -18 2 -23
10 -23 33 0 23 5 31 23 33 16 2 22 10 22 27 0 17 -6 25 -22 27 -18 2 -24 11
-26 36 -3 29 -1 32 23 32 23 0 26 4 23 28 -2 19 -9 28 -25 30 -18 3 -23 10
-23 33 0 24 4 29 26 29 22 0 25 4 22 28 -2 19 -9 27 -23 27 -15 0 -21 8 -23
33 -3 29 -1 32 23 32 23 0 26 4 23 28 -2 19 -9 28 -25 30 -18 3 -23 10 -23 33
0 24 4 29 26 29 22 0 25 4 22 28 -2 19 -9 28 -25 30 -18 3 -23 10 -23 33 0 24
4 29 26 29 22 0 25 4 22 28 -2 19 -9 28 -25 30 -18 3 -23 10 -23 33 0 24 4 29
25 29 21 0 25 5 25 30 0 25 -4 30 -25 30 -21 0 -25 5 -25 30 0 26 4 30 26 30
20 0 25 4 22 21 -3 20 -9 21 -136 23 -94 1 -137 -3 -144 -11z"/>
<path d="M2598 8392 l-148 -3 0 -24 0 -25 155 0 155 0 0 24 c0 14 -3 26 -7 28
-5 2 -74 2 -155 0z"/>
<path d="M7196 8373 c-4 -9 -3 -20 2 -25 5 -5 76 -7 158 -6 146 3 149 3 152
26 l3 22 -154 0 c-135 0 -156 -2 -161 -17z"/>
<path d="M7203 8318 c-2 -5 -4 -77 -4 -160 l0 -153 144 -3 144 -3 13 41 c10
30 11 46 2 65 -7 15 -8 27 -2 30 13 8 13 58 -1 72 -8 8 -7 16 2 31 10 15 10
29 3 49 l-9 28 -144 5 c-78 3 -145 2 -148 -2z"/>
<path d="M7514 7946 c-11 -29 0 -61 24 -64 l22 -3 0 -250 0 -249 40 0 40 0 0
250 0 250 30 0 30 0 0 -250 0 -250 45 0 46 0 -1 248 -1 247 30 3 31 3 0 -250
0 -251 40 0 40 0 0 251 0 250 33 -3 32 -3 0 -248 0 -247 43 0 43 0 -3 250 -3
250 33 0 32 0 0 -190 c0 -125 4 -190 10 -190 7 0 10 74 8 228 l-3 227 -318 3
c-269 2 -318 0 -323 -12z"/>
</g>
</svg>
